<?xml version="1.0" standalone="no"?>
<!DOCTYPE svg PUBLIC "-//W3C//DTD SVG 1.1//EN" "http://www.w3.org/Graphics/SVG/1.1/DTD/svg11.dtd" >
<svg xmlns="http://www.w3.org/2000/svg">
<metadata></metadata>
<defs>
<font id="maaxbold" horiz-adv-x="1435" >
<font-face units-per-em="2048" ascent="1536" descent="-512" />
<missing-glyph horiz-adv-x="571" />
<glyph unicode="&#xfb01;" horiz-adv-x="1261" d="M47 735v269h131v28q0 202 120 304t323 102l51 -2v-275h-25q-97 0 -138.5 -34.5t-41.5 -110.5v-12h666v-1004h-293v735h-373v-735h-289v735h-131zM817 1288q0 71 49 120.5t119 49.5q71 0 120.5 -50t49.5 -120q0 -69 -50 -118.5t-120 -49.5t-119 49.5t-49 118.5z" />
<glyph unicode="&#xfb02;" horiz-adv-x="1284" d="M47 735v269h131v28q0 202 119.5 303t323.5 101h534v-1436h-291v1161h-217q-97 0 -138.5 -34.5t-41.5 -110.5v-12h221v-269h-221v-735h-289v735h-131z" />
<glyph horiz-adv-x="2048" />
<glyph horiz-adv-x="2048" />
<glyph unicode="&#xd;" horiz-adv-x="2048" />
<glyph unicode=" "  horiz-adv-x="571" />
<glyph unicode="&#x09;" horiz-adv-x="571" />
<glyph unicode="&#xa0;" horiz-adv-x="571" />
<glyph unicode="!" horiz-adv-x="679" d="M164 160q0 73 50.5 124.5t123.5 51.5t125.5 -52t52.5 -124q0 -73 -52 -124.5t-126 -51.5q-73 0 -123.5 51t-50.5 125zM188 463v973h301v-973h-301z" />
<glyph unicode="&#x22;" horiz-adv-x="980" d="M117 864v572h291v-572h-291zM571 864v572h291v-572h-291z" />
<glyph unicode="#" horiz-adv-x="1785" d="M129 322v274h293l74 248h-260v270h333l95 322h288l-92 -322h291l90 322h293l-94 -322h217v-270h-291l-72 -248h256v-274h-331l-91 -322h-292l94 322h-293l-92 -322h-291l94 322h-219zM713 596h291l73 248h-293z" />
<glyph unicode="$" horiz-adv-x="1366" d="M92 252l209 211q107 -143 270 -189v320q-207 37 -325.5 145t-118.5 285q0 178 127 291.5t317 136.5v217h228v-223q246 -45 411 -217l-204 -215q-92 95 -207 137v-291q461 -84 461 -444q0 -175 -124.5 -291t-336.5 -141v-217h-228v219q-151 21 -275.5 93t-203.5 173z M430 1038q0 -98 141 -137v273q-66 -14 -103.5 -49.5t-37.5 -86.5zM799 264q74 15 115.5 55t41.5 93q0 101 -157 141v-289z" />
<glyph unicode="%" horiz-adv-x="1722" d="M104 1149q0 131 90 220t222 89q129 0 218 -89.5t89 -219.5q0 -129 -89 -219t-218 -90q-132 0 -222 90t-90 219zM264 0l883 1436h311l-880 -1436h-314zM328 1149q0 -40 26 -66t62 -26q32 0 58 26t26 66q0 41 -25.5 66.5t-58.5 25.5q-37 0 -62.5 -25.5t-25.5 -66.5z M999 285q0 132 90 221.5t222 89.5q129 0 218 -89.5t89 -221.5q0 -129 -89 -218.5t-218 -89.5q-132 0 -222 89.5t-90 218.5zM1221 285q0 -40 26.5 -65t63.5 -25q33 0 58.5 25.5t25.5 64.5q0 42 -25.5 68t-58.5 26q-37 0 -63.5 -25.5t-26.5 -68.5z" />
<glyph unicode="&#x26;" d="M94 408q0 136 70 242.5t190 168.5l15 8q-66 85 -91.5 151.5t-25.5 141.5q0 145 111 241.5t288 96.5q169 0 279 -101t110 -243q0 -111 -54.5 -189.5t-170.5 -156.5l-29 -20l170 -209q45 92 74 209h305q-23 -120 -73 -242t-121 -217l225 -289h-350l-76 88 q-82 -58 -167.5 -84.5t-192.5 -26.5q-99 0 -181 24.5t-137.5 66t-94 97t-56 117t-17.5 126.5zM389 422q0 -72 55.5 -123t141.5 -51q103 0 178 59l-229 303l-11 -6q-135 -69 -135 -182zM555 1094q0 -57 57 -125l11 -13l22 13q59 33 79.5 63t20.5 68t-26.5 62t-71.5 24 q-39 0 -65.5 -26.5t-26.5 -65.5z" />
<glyph unicode="'" horiz-adv-x="524" d="M117 864v572h291v-572h-291z" />
<glyph unicode="(" horiz-adv-x="798" d="M117 532q0 293 120 537t314 416l188 -180q-331 -316 -331 -773q0 -456 331 -772l-188 -180q-125 110 -219 247t-154.5 321.5t-60.5 383.5z" />
<glyph unicode=")" horiz-adv-x="798" d="M35 -240q332 317 332 772q0 456 -332 773l188 180q193 -170 313.5 -415t120.5 -538t-120 -536.5t-314 -415.5z" />
<glyph unicode="*" horiz-adv-x="985" d="M94 1200l56 219l229 -61l-8 229h241l-8 -229l230 61l57 -219l-221 -53l149 -180l-190 -148l-135 195l-134 -195l-192 152l147 176z" />
<glyph unicode="+" horiz-adv-x="1306" d="M152 369v270h364v365h270v-365h369v-270h-369v-369h-270v369h-364z" />
<glyph unicode="," horiz-adv-x="634" d="M12 -283l199 529h319l-247 -529h-271z" />
<glyph unicode="-" horiz-adv-x="1028" d="M129 406v262h770v-262h-770z" />
<glyph unicode="." horiz-adv-x="679" d="M164 156q0 74 50.5 125t123.5 51q74 0 126 -51.5t52 -124.5t-52 -124.5t-126 -51.5q-73 0 -123.5 51t-50.5 125z" />
<glyph unicode="/" horiz-adv-x="1124" d="M162 0l604 1436h301l-600 -1436h-305z" />
<glyph unicode="0" horiz-adv-x="1327" d="M94 719q0 217 66 383t196.5 261t307.5 95q176 0 306 -95t196.5 -261t66.5 -383t-66.5 -384t-196.5 -262.5t-306 -95.5q-177 0 -307.5 95.5t-196.5 262.5t-66 384zM397 719q0 -215 69 -339t198 -124q128 0 197 124t69 339t-69 338t-197 123q-130 0 -198.5 -123t-68.5 -338 z" />
<glyph unicode="1" horiz-adv-x="1167" d="M117 0v281h350v776q-62 -41 -155 -65.5t-195 -24.5v272q78 3 148 22t134.5 64t96.5 111h274v-1155h338v-281h-991z" />
<glyph unicode="2" horiz-adv-x="1265" d="M104 0v47q0 262 104 433t365 302l80 39q73 37 114 75t52.5 67t11.5 65q0 66 -53.5 109t-144.5 43q-106 0 -191.5 -60.5t-140.5 -169.5l-197 197q66 138 205.5 224.5t308.5 86.5q101 0 193.5 -27.5t165.5 -79.5t116.5 -134.5t43.5 -184.5q0 -159 -87 -264t-255 -190 l-125 -64q-101 -52 -152 -102.5t-65 -130.5h677v-281h-1026z" />
<glyph unicode="3" horiz-adv-x="1214" d="M47 207l205 207q125 -158 317 -158q100 0 163 43.5t63 120.5q0 79 -67.5 123.5t-205.5 44.5h-119v282h97q258 0 258 162q0 64 -51.5 106t-137.5 42q-95 0 -162.5 -33.5t-125.5 -106.5l-199 199q88 99 210 159t269 60q98 0 185.5 -23t159.5 -69.5t114.5 -125t42.5 -179.5 q0 -205 -160 -311q82 -40 138.5 -128.5t56.5 -209.5q0 -103 -42.5 -186.5t-116 -137.5t-171.5 -82.5t-211 -28.5q-150 0 -288 64t-222 166z" />
<glyph unicode="4" horiz-adv-x="1286" d="M57 303v250l615 883h334v-865h198v-268h-198v-303h-304v303h-645zM373 571h329v482z" />
<glyph unicode="5" horiz-adv-x="1271" d="M104 205l218 215q124 -164 301 -164q103 0 172 58.5t69 152.5q0 96 -66.5 159.5t-168.5 63.5q-74 0 -131 -35t-86 -102h-281l35 883h887v-281h-602l-13 -264q97 65 240 65q128 0 238 -55t180.5 -165t70.5 -253q0 -227 -158.5 -366.5t-408.5 -139.5q-155 0 -288 63 t-208 165z" />
<glyph unicode="6" horiz-adv-x="1306" d="M104 731q0 329 165.5 528t447.5 199q131 0 250.5 -54t193.5 -140l-196 -203q-97 119 -260 119q-129 0 -219 -100t-93 -259q115 131 312 131q99 0 189 -35t158.5 -96.5t109 -153.5t40.5 -200q0 -111 -42.5 -204.5t-114.5 -155.5t-166 -96t-197 -34q-268 0 -423 202 t-155 552zM469 469q0 -93 61 -153t154 -60t154 60t61 153q0 94 -61 153.5t-154 59.5t-154 -59.5t-61 -153.5z" />
<glyph unicode="7" horiz-adv-x="1177" d="M70 938v498h1048v-265q-428 -443 -483 -1089l-6 -82h-310l9 80q28 331 133.5 591.5t288.5 483.5h-385v-217h-295z" />
<glyph unicode="8" horiz-adv-x="1273" d="M117 412q0 114 51 197.5t129 129.5q-145 116 -145 285q0 192 138.5 313t346.5 121q210 0 347.5 -120.5t137.5 -313.5q0 -167 -143 -285q77 -46 127.5 -130t50.5 -197q0 -198 -146 -316.5t-374 -118.5t-374 118.5t-146 316.5zM420 428q0 -80 60 -126t157 -46 q98 0 157.5 45.5t59.5 126.5q0 79 -60 126.5t-157 47.5q-96 0 -156.5 -47.5t-60.5 -126.5zM455 1024q0 -71 54 -113.5t128 -42.5q75 0 128.5 42t53.5 114t-53.5 114t-128.5 42q-74 0 -128 -42.5t-54 -113.5z" />
<glyph unicode="9" horiz-adv-x="1296" d="M94 969q0 148 73 261t190 170.5t257 57.5q267 0 421.5 -201.5t154.5 -551.5q0 -217 -73.5 -381.5t-212 -255.5t-324.5 -91q-131 0 -250.5 54.5t-194.5 140.5l197 205q43 -56 110 -88.5t148 -32.5q129 0 219.5 99.5t93.5 258.5q-115 -131 -313 -131q-132 0 -244.5 59 t-182 171.5t-69.5 255.5zM397 967q0 -95 60.5 -154t154.5 -59q93 0 154 59.5t61 153.5t-61 153.5t-154 59.5q-94 0 -154.5 -59t-60.5 -154z" />
<glyph unicode=":" horiz-adv-x="679" d="M164 156q0 74 50.5 125t123.5 51q74 0 126 -51.5t52 -124.5t-52 -124.5t-126 -51.5q-73 0 -123.5 51t-50.5 125zM164 842q0 74 50.5 125t123.5 51q74 0 126 -51.5t52 -124.5t-52 -124.5t-126 -51.5q-73 0 -123.5 51t-50.5 125z" />
<glyph unicode=";" horiz-adv-x="684" d="M20 -283l199 529h320l-248 -529h-271zM190 850q0 74 52 126t125 52t125.5 -52t52.5 -126q0 -73 -52 -124.5t-126 -51.5t-125.5 51.5t-51.5 124.5z" />
<glyph unicode="&#x3c;" horiz-adv-x="1286" d="M104 350v303l1031 375v-307l-656 -219l656 -219v-306z" />
<glyph unicode="=" horiz-adv-x="1331" d="M152 182v262h1028v-262h-1028zM152 631v260h1028v-260h-1028z" />
<glyph unicode="&#x3e;" horiz-adv-x="1286" d="M129 -23v306l655 219l-655 219v307l1030 -375v-303z" />
<glyph unicode="?" horiz-adv-x="1130" d="M35 1217q76 112 202.5 176.5t278.5 64.5q136 0 249 -53.5t181 -155t68 -231.5q0 -161 -103 -279t-274 -153v-123h-299v368h96q119 0 198 53.5t79 139.5q0 68 -54.5 111t-138.5 43q-180 0 -291 -166zM315 160q0 72 51 124t123 52q73 0 126 -52t53 -124q0 -73 -52.5 -124.5 t-126.5 -51.5q-72 0 -123 51.5t-51 124.5z" />
<glyph unicode="@" horiz-adv-x="2181" d="M104 506q0 220 78.5 401t215 301t320.5 185t396 65q291 0 512 -110t341 -312.5t120 -470.5q0 -165 -62 -299.5t-171 -211.5t-242 -77q-166 0 -244 121q-130 -121 -315 -121q-219 0 -360.5 146t-141.5 379q0 228 137 377t352 149q159 0 258 -92v68h281v-658 q0 -67 17.5 -101t68.5 -34q70 0 125 97.5t55 232.5q0 152 -47 279t-137 220t-230 145t-317 52q-160 0 -300 -50t-244 -142t-164 -231t-60 -308q0 -220 103 -381t283 -242.5t417 -81.5q117 0 201 12.5t194 41.5v-217q-190 -58 -407 -58q-228 0 -419 64.5t-327 182.5 t-211.5 292.5t-75.5 386.5zM848 498q0 -107 59 -184.5t162 -77.5t162 77.5t59 184.5q0 106 -58.5 182t-162.5 76t-162.5 -76t-58.5 -182z" />
<glyph unicode="A" horiz-adv-x="1458" d="M23 0l561 1436h290l562 -1436h-316l-114 283h-555l-113 -283h-315zM551 553h356l-178 469z" />
<glyph unicode="B" horiz-adv-x="1406" d="M139 0v1436h645q226 0 361 -103t135 -295q0 -83 -39 -159.5t-108 -130.5q182 -128 182 -328q0 -189 -136 -304.5t-360 -115.5h-680zM444 281h306q127 0 192.5 37t65.5 128q0 158 -250 158h-314v-323zM444 860h291q238 0 238 148q0 81 -59 114t-191 33h-279v-295z" />
<glyph unicode="C" horiz-adv-x="1497" d="M82 715q0 168 58.5 308.5t160 235t239 147t294.5 52.5q352 0 571 -270l-205 -209q-64 91 -163.5 143t-217.5 52q-79 0 -154 -30t-135.5 -85t-97.5 -143t-37 -195t35 -195t95.5 -145t140.5 -88t170 -31q242 0 389 201l202 -215q-221 -271 -583 -271q-215 0 -387.5 89.5 t-273.5 258.5t-101 390z" />
<glyph unicode="D" horiz-adv-x="1495" d="M139 0v1436h473q121 0 232.5 -23t216.5 -77t182 -134t123.5 -202t46.5 -273t-46.5 -275.5t-124 -206.5t-182 -138.5t-216.5 -81.5t-232 -25h-473zM444 281h123q95 0 173.5 14t147 47t115.5 83.5t74 127t27 174.5q0 428 -539 428h-121v-874z" />
<glyph unicode="E" horiz-adv-x="1327" d="M139 0v1436h1059v-281h-754v-285h719v-276h-719v-313h754v-281h-1059z" />
<glyph unicode="F" horiz-adv-x="1210" d="M139 0v1436h989v-281h-684v-311h637v-279h-637v-565h-305z" />
<glyph unicode="G" horiz-adv-x="1544" d="M82 715q0 168 58.5 308.5t160 235t239 147t294.5 52.5q352 0 571 -270l-205 -209q-64 91 -163.5 143t-217.5 52q-79 0 -154 -30t-135.5 -85t-97.5 -143t-37 -195q0 -138 60.5 -243.5t160 -160.5t220.5 -55q172 0 292 86v170h-284v281h583v-576q-105 -108 -259.5 -177 t-336.5 -69q-155 0 -293 54.5t-238.5 150t-159 234t-58.5 299.5z" />
<glyph unicode="H" horiz-adv-x="1488" d="M139 0v1436h305v-564h603v564h303v-1436h-303v594h-603v-594h-305z" />
<glyph unicode="I" horiz-adv-x="606" d="M152 0v1436h303v-1436h-303z" />
<glyph unicode="J" horiz-adv-x="1036" d="M12 201l205 202q75 -147 203 -147q91 0 143.5 59t52.5 166v955h304v-942q0 -251 -129.5 -384t-362.5 -133q-282 0 -416 224z" />
<glyph unicode="K" horiz-adv-x="1363" d="M139 0v1436h305v-586l463 586h363l-492 -615l539 -821h-350l-383 586l-140 -178v-408h-305z" />
<glyph unicode="L" horiz-adv-x="1157" d="M139 0v1436h305v-1155h656v-281h-961z" />
<glyph unicode="M" horiz-adv-x="1703" d="M139 0v1436h305l408 -805l410 805h303v-1436h-303v815l-275 -524h-270l-273 524v-815h-305z" />
<glyph unicode="N" horiz-adv-x="1529" d="M139 0v1436h367l579 -973v973h304v-1436h-365l-580 969v-969h-305z" />
<glyph unicode="O" horiz-adv-x="1644" d="M82 719q0 158 57.5 296.5t156 235t234.5 152t289 55.5q204 0 374 -94t270 -264t100 -381q0 -212 -100 -383t-269.5 -265t-374.5 -94q-153 0 -289 55.5t-234.5 152.5t-156 235.5t-57.5 298.5zM395 719q0 -125 50.5 -227.5t150 -165t231.5 -62.5q129 0 227.5 62.5 t148.5 165t50 227.5q0 188 -120 320t-306 132q-197 0 -314.5 -131t-117.5 -321z" />
<glyph unicode="P" horiz-adv-x="1339" d="M139 0v1436h582q253 0 407 -130t154 -352q0 -224 -155 -361.5t-406 -137.5h-277v-455h-305zM444 735h224q311 0 311 213q0 107 -77 157t-234 50h-224v-420z" />
<glyph unicode="Q" horiz-adv-x="1679" d="M82 719q0 158 57.5 296.5t156 235t234.5 152t289 55.5q204 0 374 -94t270 -264t100 -381q0 -240 -131 -430l153 -154l-194 -192l-156 153q-186 -119 -416 -119q-153 0 -289 55.5t-234.5 152.5t-156 235.5t-57.5 298.5zM395 719q0 -125 50.5 -227.5t150 -165t231.5 -62.5 q115 0 197 43l-174 176l194 195l166 -168q43 93 43 209q0 188 -120 320t-306 132q-197 0 -314.5 -131t-117.5 -321z" />
<glyph unicode="R" horiz-adv-x="1386" d="M139 0v1436h594q240 0 394.5 -125.5t154.5 -343.5q0 -151 -76.5 -269.5t-206.5 -179.5l318 -518h-346l-283 461h-244v-461h-305zM444 739h236q299 0 299 211q0 105 -72.5 155t-226.5 50h-236v-416z" />
<glyph unicode="S" horiz-adv-x="1318" d="M70 252l209 211q72 -94 174 -150.5t231 -56.5q117 0 183.5 44t66.5 112q0 56 -47 93.5t-154 57.5l-176 31q-210 35 -331.5 143.5t-121.5 286.5q0 134 77 235t196 150t258 49q176 0 316.5 -64t236.5 -165l-205 -215q-162 166 -365 166q-96 0 -153 -39t-57 -103 q0 -115 204 -151l142 -23q483 -78 483 -448q0 -197 -156 -318t-415 -121q-189 0 -344.5 77t-251.5 198z" />
<glyph unicode="T" horiz-adv-x="1241" d="M57 1155v281h1127v-281h-412v-1155h-303v1155h-412z" />
<glyph unicode="U" horiz-adv-x="1437" d="M117 637v799h303v-813q0 -163 75.5 -265t223.5 -102q299 0 299 371v809h303v-799q0 -322 -160 -491t-442 -169t-442 169t-160 491z" />
<glyph unicode="V" horiz-adv-x="1320" d="M12 1436h310l342 -1041l335 1041h312l-492 -1436h-315z" />
<glyph unicode="W" horiz-adv-x="1951" d="M35 1436h325l222 -920l231 920h326l231 -920l221 920h326l-383 -1436h-311l-246 948l-248 -948h-311z" />
<glyph unicode="X" horiz-adv-x="1402" d="M47 0l473 735l-446 701h356l270 -455l273 455h356l-446 -701l473 -735h-355l-301 483l-299 -483h-354z" />
<glyph unicode="Y" horiz-adv-x="1280" d="M12 1436h332l295 -605l297 605h332l-480 -934v-502h-301v502z" />
<glyph unicode="Z" horiz-adv-x="1341" d="M104 0v268l725 887h-718v281h1103v-269l-725 -886h748v-281h-1133z" />
<glyph unicode="[" horiz-adv-x="768" d="M139 -397v1833h572v-267h-281v-1300h281v-266h-572z" />
<glyph unicode="\" horiz-adv-x="1114" d="M23 1436h301l604 -1436h-305z" />
<glyph unicode="]" horiz-adv-x="768" d="M35 -131h280v1300h-280v267h571v-1833h-571v266z" />
<glyph unicode="^" horiz-adv-x="1366" d="M104 688l443 748h270l445 -748h-312l-268 453l-268 -453h-310z" />
<glyph unicode="_" horiz-adv-x="1261" d="M104 -135h1051v-262h-1051v262z" />
<glyph unicode="`" horiz-adv-x="1138" d="M248 1436h368l152 -291h-274z" />
<glyph unicode="a" horiz-adv-x="1077" d="M70 295q0 106 57 181t145 108.5t195 33.5q103 0 201 -28v16q0 72 -45.5 118t-122.5 46q-62 0 -119.5 -29.5t-95.5 -87.5l-185 176q167 199 420 199q190 0 315.5 -107.5t125.5 -293.5v-627h-289v66q-101 -89 -254 -89q-159 0 -253.5 90t-94.5 228zM362 313q0 -40 35 -65 t90 -25q99 0 181 62v114q-83 19 -136 19q-83 0 -126.5 -29t-43.5 -76z" />
<glyph unicode="b" horiz-adv-x="1251" d="M129 0v1436h291v-496q42 37 109.5 62.5t148.5 25.5q103 0 195 -38t160 -105.5t107.5 -167t39.5 -215.5q0 -119 -39.5 -218.5t-108 -166t-160 -103.5t-194.5 -37q-80 0 -149.5 27t-112.5 68v-72h-287zM416 502q0 -116 66 -189t167 -73t167.5 73t66.5 189t-66.5 189 t-167.5 73t-167 -73t-66 -189z" />
<glyph unicode="c" horiz-adv-x="1099" d="M70 502q0 225 152 375.5t378 150.5q134 0 233.5 -52t186.5 -149l-197 -190q-95 117 -213 117q-104 0 -173.5 -71.5t-69.5 -180.5t69.5 -180.5t173.5 -71.5q133 0 234 131l196 -191q-161 -213 -440 -213q-226 0 -378 150t-152 375z" />
<glyph unicode="d" horiz-adv-x="1249" d="M70 502q0 116 39.5 215.5t107.5 167t159.5 105.5t194.5 38q81 0 148.5 -25.5t109.5 -62.5v496h291v-1436h-286v72q-43 -41 -112.5 -68t-150.5 -27q-103 0 -194.5 37t-159.5 103.5t-107.5 166t-39.5 218.5zM367 502q0 -116 66 -189t167 -73t167.5 73t66.5 189t-66.5 189 t-167.5 73t-167 -73t-66 -189z" />
<glyph unicode="e" horiz-adv-x="1120" d="M72 496q0 229 138.5 380.5t354.5 151.5q117 0 211.5 -44t152.5 -118t89 -164.5t31 -187.5l-2 -86h-680q12 -81 71.5 -132.5t153.5 -51.5q155 0 246 116l192 -180q-161 -203 -430 -203q-229 0 -378.5 143t-149.5 376zM381 623h360q-5 64 -52 106.5t-118 42.5 q-78 0 -127 -41.5t-63 -107.5z" />
<glyph unicode="f" horiz-adv-x="743" d="M47 735v269h131v28q0 202 120 304t323 102l75 -2v-275h-49q-97 0 -138.5 -34.5t-41.5 -110.5v-12h221v-269h-221v-735h-289v735h-131z" />
<glyph unicode="g" horiz-adv-x="1224" d="M70 524q0 119 40.5 216t108.5 159t156 95.5t186 33.5q146 0 250 -96v72h287v-900q0 -233 -144.5 -378.5t-398.5 -145.5q-294 0 -457 203l203 194q39 -56 104.5 -92.5t147.5 -36.5q115 0 183.5 62t68.5 162v26q-85 -75 -244 -75q-215 0 -353 134.5t-138 366.5zM367 524 q0 -105 64 -171t157 -66q94 0 158.5 66t64.5 171q0 107 -64.5 173.5t-158.5 66.5q-93 0 -157 -67t-64 -173z" />
<glyph unicode="h" horiz-adv-x="1167" d="M129 0v1436h291v-490q37 34 99.5 58t133.5 24q188 0 299 -117t111 -327v-584h-293v561q0 86 -41.5 141.5t-124.5 55.5q-184 0 -184 -256v-502h-291z" />
<glyph unicode="i" horiz-adv-x="571" d="M117 1288q0 71 49 120.5t119 49.5q71 0 120.5 -50t49.5 -120q0 -69 -50 -118.5t-120 -49.5t-119 49.5t-49 118.5zM139 0v1004h293v-1004h-293z" />
<glyph unicode="j" horiz-adv-x="581" d="M-47 -137h63q68 0 101 26t33 97v1018h290v-1053q0 -359 -352 -359l-135 5v266zM127 1288q0 71 49 120.5t119 49.5q69 0 119.5 -50t50.5 -120q0 -69 -50.5 -118.5t-119.5 -49.5q-70 0 -119 49.5t-49 118.5z" />
<glyph unicode="k" horiz-adv-x="1116" d="M129 0v1436h291v-750l278 318h367l-371 -414l387 -590h-354l-240 381l-67 -74v-307h-291z" />
<glyph unicode="l" horiz-adv-x="548" d="M129 0v1436h291v-1436h-291z" />
<glyph unicode="m" horiz-adv-x="1763" d="M129 0v1004h287v-70q98 94 241 94q174 0 279 -121q55 55 133.5 88t167.5 33q201 0 310.5 -115.5t109.5 -328.5v-584h-291v571q0 85 -39.5 136t-114.5 51q-83 0 -128.5 -59t-45.5 -164v-535h-290v571q0 85 -39.5 136t-114.5 51q-85 0 -129.5 -63.5t-44.5 -180.5v-514h-291 z" />
<glyph unicode="n" horiz-adv-x="1167" d="M129 0v1004h287v-70q98 94 237 94q188 0 299 -117t111 -327v-584h-293v561q0 86 -41.5 141.5t-124.5 55.5q-184 0 -184 -256v-502h-291z" />
<glyph unicode="o" horiz-adv-x="1204" d="M72 502q0 225 152 375.5t378 150.5t378.5 -150.5t152.5 -375.5t-152.5 -375t-378.5 -150t-378 150t-152 375zM369 502q0 -110 66 -182t167 -72t167.5 72t66.5 182t-66.5 182t-167.5 72t-167 -72t-66 -182z" />
<glyph unicode="p" horiz-adv-x="1249" d="M129 -397v1401h287v-72q43 41 112.5 68.5t149.5 27.5q103 0 194.5 -37t160 -103.5t108 -166.5t39.5 -219q0 -116 -39.5 -215t-107.5 -166.5t-160 -105.5t-195 -38q-81 0 -148.5 24.5t-109.5 61.5v-460h-291zM416 502q0 -116 66 -189t167 -73t167.5 73t66.5 189t-66.5 189 t-167.5 73t-167 -73t-66 -189z" />
<glyph unicode="q" horiz-adv-x="1249" d="M70 502q0 119 39.5 219t107.5 166.5t159.5 103.5t194.5 37q80 0 150 -27.5t113 -68.5v72h286v-1401h-291v460q-42 -37 -109.5 -61.5t-148.5 -24.5q-103 0 -194.5 38t-159.5 105.5t-107.5 166.5t-39.5 215zM367 502q0 -116 66 -189t167 -73t167.5 73t66.5 189t-66.5 189 t-167.5 73t-167 -73t-66 -189z" />
<glyph unicode="r" horiz-adv-x="788" d="M129 0v1004h287v-91q41 49 107 77t143 28q48 0 77 -2v-281h-45q-126 0 -202 -80t-76 -235v-420h-291z" />
<glyph unicode="s" horiz-adv-x="999" d="M70 172l178 182q136 -133 287 -133q46 0 79 18.5t33 47.5q0 23 -20.5 37t-69.5 26l-133 33q-328 81 -328 328q0 143 113 230t276 87q227 0 404 -158l-178 -188q-117 98 -238 98q-42 0 -68 -17t-26 -42q0 -37 72 -53l149 -35q72 -17 128 -42.5t103.5 -64t73 -95.5 t25.5 -130q0 -143 -114 -233.5t-306 -90.5q-139 0 -257.5 57t-182.5 138z" />
<glyph unicode="t" horiz-adv-x="770" d="M35 735v269h131v280h289v-280h223v-269h-223v-346q0 -71 32.5 -97t100.5 -26h86v-266q-78 -4 -158 -4q-350 0 -350 358v381h-131z" />
<glyph unicode="u" horiz-adv-x="1144" d="M104 420v584h293v-572q0 -85 39 -135.5t115 -50.5q92 0 132 61t40 182v515h293v-1004h-287v70q-90 -93 -250 -93q-176 0 -275.5 115.5t-99.5 327.5z" />
<glyph unicode="v" horiz-adv-x="1036" d="M12 1004h310l196 -621l197 621h309l-356 -1004h-299z" />
<glyph unicode="w" horiz-adv-x="1605" d="M23 1004h311l143 -601l164 601h324l165 -601l142 601h311l-283 -1004h-317l-180 618l-180 -618h-318z" />
<glyph unicode="x" horiz-adv-x="1073" d="M35 0l338 516l-316 488h328l152 -256l151 256h328l-316 -488l338 -516h-325l-176 285l-175 -285h-327z" />
<glyph unicode="y" horiz-adv-x="1118" d="M12 1004h324l225 -621l234 621h311l-559 -1401h-307l163 397z" />
<glyph unicode="z" horiz-adv-x="1054" d="M104 0v233l437 510h-424v261h811v-234l-443 -508h465v-262h-846z" />
<glyph unicode="{" horiz-adv-x="888" d="M82 381v276h221v406q0 209 97.5 297t293.5 88h137v-264h-86q-74 0 -109.5 -35t-35.5 -117v-1026q0 -81 35.5 -116t109.5 -35h86v-263h-137q-197 0 -294 87.5t-97 297.5v404h-221z" />
<glyph unicode="|" horiz-adv-x="774" d="M246 -397v1833h284v-1833h-284z" />
<glyph unicode="}" horiz-adv-x="888" d="M35 -145h86q74 0 109.5 35t35.5 116v1026q0 82 -35.5 117t-109.5 35h-86v264h137q196 0 293.5 -88t97.5 -297v-406h221v-276h-221v-404q0 -210 -97 -297.5t-294 -87.5h-137v263z" />
<glyph unicode="~" horiz-adv-x="1054" d="M106 362q-8 158 52 254.5t186 96.5q46 0 111 -17l141 -45q50 -16 78 -16q63 0 63 78h211q9 -157 -50.5 -254t-184.5 -97q-64 0 -113 17l-139 43q-50 16 -80 16q-31 0 -47.5 -20.5t-16.5 -55.5h-211z" />
<glyph unicode="&#xa1;" horiz-adv-x="679" d="M164 852q0 73 52 124.5t124 51.5q74 0 125 -51t51 -125t-51.5 -126t-124.5 -52q-72 0 -124 52.5t-52 125.5zM188 -397v946h301v-946h-301z" />
<glyph unicode="&#xa2;" horiz-adv-x="1150" d="M117 502q0 194 114 334.5t297 179.5v221h226v-219q168 -32 313 -191l-197 -190q-61 72 -116 96v-467q72 31 137 115l196 -191q-129 -171 -333 -204v-219h-226v223q-183 37 -297 177.5t-114 334.5zM414 502q0 -71 30.5 -128.5t83.5 -88.5v434q-53 -33 -83.5 -89.5 t-30.5 -127.5z" />
<glyph unicode="&#xa3;" horiz-adv-x="1339" d="M129 0v285h262l-84 356h-178v277h133q-2 23 -2 65q0 96 28.5 176t75 134t108.5 92t128.5 55.5t134.5 17.5q304 0 471 -227l-209 -213q-42 72 -104 117t-139 45q-91 0 -141 -60.5t-50 -148.5q0 -37 2 -53h363v-277h-307l77 -356h252v225h273v-510h-1094z" />
<glyph unicode="&#xa5;" horiz-adv-x="1372" d="M59 1436h332l295 -605l297 605h332l-359 -697h218v-237h-338v-94h338v-238h-338v-170h-301v170h-338v238h338v94h-338v237h217z" />
<glyph unicode="&#xa6;" horiz-adv-x="774" d="M246 350h284v-747h-284v747zM246 688v748h284v-748h-284z" />
<glyph unicode="&#xa7;" horiz-adv-x="1296" d="M117 588q0 190 147 299q-69 94 -69 217q0 153 124.5 253.5t315.5 100.5q145 0 252 -60.5t198 -164.5l-194 -195q-64 74 -124 111t-146 37q-59 0 -95.5 -28t-36.5 -68q0 -91 156 -152l127 -49q100 -37 169 -74.5t126 -89.5t85 -121.5t28 -157.5q0 -156 -117 -286 q67 -91 67 -209q0 -154 -129.5 -262.5t-334.5 -108.5q-163 0 -288.5 77.5t-205.5 207.5l197 188q127 -200 303 -200q74 0 118 26t44 72q0 47 -39 78.5t-133 64.5l-168 58q-90 32 -155.5 69t-117.5 89t-78 121.5t-26 156.5zM414 602q0 -58 36.5 -106t137.5 -84l258 -97 q39 48 39 113q0 60 -39 106t-135 84l-250 99q-47 -37 -47 -115z" />
<glyph unicode="&#xa8;" horiz-adv-x="1138" d="M205 1307q0 62 44 106.5t107 44.5q62 0 108 -45t46 -106q0 -62 -46 -107t-108 -45q-63 0 -107 44.5t-44 107.5zM639 1307q0 62 44.5 106.5t107.5 44.5q62 0 107.5 -45t45.5 -106q0 -63 -45.5 -107.5t-107.5 -44.5q-63 0 -107.5 44.5t-44.5 107.5z" />
<glyph unicode="&#xa9;" horiz-adv-x="1691" d="M104 719q0 154 58.5 291.5t157.5 235.5t236.5 155t289.5 57q151 0 288 -57t236.5 -155t158 -235.5t58.5 -291.5q0 -156 -58.5 -294.5t-158 -236t-236 -154.5t-288.5 -57t-289 57t-236.5 154.5t-158 236t-58.5 294.5zM285 719q0 -157 71 -286t200 -204t290 -75 q160 0 289 75t200.5 204t71.5 286q0 154 -71.5 283t-200.5 204.5t-289 75.5q-120 0 -225.5 -44.5t-178.5 -120t-115 -179.5t-42 -219zM446 717q0 180 121 293.5t299 113.5q90 0 172.5 -38.5t139.5 -106.5l-158 -158q-62 82 -154 82q-73 0 -125.5 -52.5t-52.5 -133.5 q0 -79 52.5 -134t129.5 -55q99 0 166 88l158 -147q-61 -71 -147 -116.5t-185 -45.5q-179 0 -297.5 114.5t-118.5 295.5z" />
<glyph unicode="&#xaa;" horiz-adv-x="878" d="M94 918q0 117 83.5 178t207.5 61q67 0 129 -20v12q0 52 -29.5 82.5t-81.5 30.5q-42 0 -82 -21t-69 -59l-137 131q112 145 309 145q147 0 236.5 -78t89.5 -217v-463h-230v37q-80 -53 -182 -53q-116 0 -180 65t-64 169zM328 932q0 -26 19.5 -42t51.5 -16q68 0 115 39v64 q-49 14 -100 14q-39 0 -62.5 -16t-23.5 -43z" />
<glyph unicode="&#xab;" horiz-adv-x="1351" d="M82 502l280 502h316l-285 -502l285 -502h-316zM676 502l280 502h316l-285 -502l285 -502h-316z" />
<glyph unicode="&#xac;" horiz-adv-x="1284" d="M129 406v262h1004v-541h-281v279h-723z" />
<glyph unicode="&#xad;" horiz-adv-x="1028" d="M129 406v262h770v-262h-770z" />
<glyph unicode="&#xae;" horiz-adv-x="1327" d="M104 891q0 154 73.5 284.5t202 206.5t282.5 76q153 0 281.5 -76t203 -206.5t74.5 -284.5q0 -153 -74.5 -282.5t-203 -205t-281.5 -75.5q-154 0 -282.5 75.5t-202 205t-73.5 282.5zM264 891q0 -170 114 -289t284 -119q169 0 284 119t115 289q0 172 -115 292t-284 120 q-170 0 -284 -120t-114 -292zM440 647v514h256q91 0 155 -50t64 -144q0 -103 -84 -156l99 -164h-182l-76 131h-56v-131h-176zM616 924h52q71 0 71 49q0 45 -71 45h-52v-94z" />
<glyph unicode="&#xaf;" horiz-adv-x="1138" d="M311 1196v240h512v-240h-512z" />
<glyph unicode="&#xb0;" horiz-adv-x="911" d="M104 1108q0 147 102 248.5t249 101.5q148 0 249 -101t101 -249q0 -147 -101.5 -248.5t-248.5 -101.5q-146 0 -248.5 102t-102.5 248zM336 1108q0 -51 34 -86t85 -35q48 0 82 35t34 86q0 53 -34 89t-82 36q-51 0 -85 -35.5t-34 -89.5z" />
<glyph unicode="&#xb1;" horiz-adv-x="1331" d="M152 0v262h1028v-262h-1028zM164 801v270h364v365h271v-365h368v-270h-368v-369h-271v369h-364z" />
<glyph unicode="&#xb2;" horiz-adv-x="854" d="M94 631v49q0 293 238 407l82 41q73 35 73 74q0 45 -67 45q-46 0 -90.5 -31.5t-75.5 -85.5l-158 158q55 80 139.5 125t186.5 45q84 0 153 -25t115.5 -82.5t46.5 -138.5q0 -85 -46.5 -144t-158.5 -120l-51 -28q-35 -19 -48.5 -27.5t-29 -23t-20.5 -31.5h350v-207h-639z" />
<glyph unicode="&#xb3;" horiz-adv-x="813" d="M70 743l153 154q56 -80 154 -80q40 0 62 18.5t22 45.5q0 63 -107 63h-73v195h59q57 0 77.5 15t20.5 42q0 22 -20 37.5t-49 15.5q-84 0 -140 -53l-139 137q56 60 133 92.5t156 32.5q56 0 106 -13t93.5 -39.5t69.5 -73t26 -107.5q0 -55 -22 -102t-58 -72q41 -25 71.5 -75.5 t30.5 -113.5q0 -56 -19 -101t-50.5 -73.5t-74.5 -47.5t-87.5 -26.5t-93.5 -7.5q-91 0 -169.5 38t-131.5 99z" />
<glyph unicode="&#xb4;" horiz-adv-x="1138" d="M399 1145l152 291h369l-246 -291h-275z" />
<glyph unicode="&#xb6;" horiz-adv-x="1579" d="M70 981q0 207 142 331t384 124h831v-1833h-297v1560h-190v-1560h-295v925h-49q-242 0 -384 122.5t-142 330.5z" />
<glyph unicode="&#xb7;" horiz-adv-x="585" d="M117 526q0 74 50.5 125t123.5 51q74 0 126 -51.5t52 -124.5t-52 -124.5t-126 -51.5q-73 0 -123.5 51t-50.5 125z" />
<glyph unicode="&#xb8;" horiz-adv-x="1146" d="M344 -281l145 281h261l-113 -281h-293z" />
<glyph unicode="&#xb9;" horiz-adv-x="870" d="M129 631v200h205v336q-70 -51 -205 -51v211q70 2 130 28t87 81h223v-605h197v-200h-637z" />
<glyph unicode="&#xba;" horiz-adv-x="985" d="M94 1067q0 167 115.5 279t284.5 112q168 0 282.5 -112t114.5 -279q0 -166 -114.5 -277.5t-282.5 -111.5q-170 0 -285 111t-115 278zM346 1067q0 -80 42 -123t106 -43q61 0 103 43.5t42 122.5t-42 122.5t-103 43.5q-64 0 -106 -43t-42 -123z" />
<glyph unicode="&#xbb;" horiz-adv-x="1351" d="M57 0l285 502l-285 502h316l280 -502l-280 -502h-316zM651 0l285 502l-285 502h316l280 -502l-280 -502h-316z" />
<glyph unicode="&#xbc;" horiz-adv-x="2103" d="M106 631v200h205v336q-70 -51 -205 -51v211q71 2 131 28t87 81h223v-605h196v-200h-637zM483 0l883 1436h313l-882 -1436h-314zM1257 137v201l277 444h319v-432h121v-213h-121v-137h-235v137h-361zM1481 350h137v217z" />
<glyph unicode="&#xbd;" horiz-adv-x="2152" d="M106 631v200h205v336q-70 -51 -205 -51v211q71 2 131 28t87 81h223v-605h196v-200h-637zM483 0l883 1436h313l-882 -1436h-314zM1393 -23v50q0 293 237 407l82 41q74 35 74 74q0 45 -68 45q-46 0 -90.5 -31.5t-75.5 -85.5l-157 158q55 80 139 125t186 45q84 0 153.5 -25 t116 -82.5t46.5 -138.5q0 -85 -46.5 -144t-158.5 -120l-51 -29q-36 -20 -49 -27.5t-29 -22.5t-21 -32h351v-207h-639z" />
<glyph unicode="&#xbe;" horiz-adv-x="1970" d="M57 743l154 154q56 -80 154 -80q40 0 62 18.5t22 45.5q0 63 -107 63h-74v195h60q57 0 77.5 15t20.5 42q0 22 -20.5 37.5t-49.5 15.5q-83 0 -139 -53l-139 137q56 60 133 92.5t156 32.5q56 0 106 -13t93.5 -39.5t69.5 -73t26 -107.5q0 -55 -22 -102t-58 -72 q41 -25 71.5 -75.5t30.5 -113.5q0 -56 -19.5 -101t-51 -73.5t-74.5 -47.5t-87.5 -26.5t-93.5 -7.5q-91 0 -169.5 38t-131.5 99zM352 0l883 1436h313l-882 -1436h-314zM1124 137v201l277 444h319v-432h121v-213h-121v-137h-235v137h-361zM1348 350h137v217z" />
<glyph unicode="&#xbf;" horiz-adv-x="1130" d="M117 10q0 -129 67.5 -228.5t179.5 -150.5t250 -51q304 0 482 232l-193 204q-102 -153 -291 -153q-84 0 -138 41.5t-54 109.5q0 84 75.5 127t200.5 43h95v365h-297v-119q-172 -36 -274.5 -149t-102.5 -271zM463 852q0 74 51.5 125t124.5 51t124.5 -51t51.5 -125 t-51.5 -126t-124.5 -52t-124.5 52t-51.5 126z" />
<glyph unicode="&#xc0;" d="M10 0l561 1436h291l561 -1436h-315l-115 283h-555l-112 -283h-316zM389 1786h348l152 -211h-299zM539 553h356l-178 469z" />
<glyph unicode="&#xc1;" d="M10 0l561 1436h291l561 -1436h-315l-115 283h-555l-112 -283h-316zM514 1575l152 211h348l-201 -211h-299zM539 553h356l-178 469z" />
<glyph unicode="&#xc2;" d="M10 0l561 1436h291l561 -1436h-315l-115 283h-555l-112 -283h-316zM365 1575l176 211h356l174 -211h-274l-78 82l-78 -82h-276zM539 553h356l-178 469z" />
<glyph unicode="&#xc3;" d="M10 0l561 1436h291l561 -1436h-315l-115 283h-555l-112 -283h-316zM369 1530q0 105 53.5 180.5t144.5 75.5q25 0 88 -14l84 -27q40 -12 62 -12q21 0 37.5 12.5t17.5 40.5h186q0 -104 -53.5 -180t-144.5 -76q-17 0 -33 3t-34.5 8t-20.5 5l-84 27q-33 10 -62 10 q-53 0 -55 -53h-186zM539 553h356l-178 469z" />
<glyph unicode="&#xc4;" d="M10 0l561 1436h291l561 -1436h-315l-115 283h-555l-112 -283h-316zM348 1669q0 62 44.5 107t107.5 45q62 0 107.5 -45.5t45.5 -106.5q0 -62 -45.5 -106.5t-107.5 -44.5q-63 0 -107.5 44t-44.5 107zM539 553h356l-178 469zM782 1669q0 62 44.5 107t107.5 45 q62 0 107.5 -45.5t45.5 -106.5q0 -62 -45.5 -106.5t-107.5 -44.5q-63 0 -107.5 44t-44.5 107z" />
<glyph unicode="&#xc5;" d="M10 0l557 1427q-69 63 -69 160q0 96 64 158.5t153 62.5q93 0 158 -62.5t65 -158.5q0 -97 -72 -162l557 -1425h-315l-115 283h-555l-112 -283h-316zM539 553h356l-178 469zM645 1587q0 -27 21 -47t49 -20q27 0 47 20t20 47t-20 47.5t-47 20.5q-28 0 -49 -20t-21 -48z" />
<glyph unicode="&#xc6;" horiz-adv-x="1898" d="M10 0l561 1436h1211v-281h-811l112 -285h664v-276h-557l123 -313h469v-281h-674l-115 283h-555l-112 -283h-316zM539 553h356l-178 469z" />
<glyph unicode="&#xc7;" horiz-adv-x="1497" d="M82 715q0 168 58.5 308.5t160 235t239 147t294.5 52.5q352 0 571 -270l-205 -209q-64 91 -163.5 143t-217.5 52q-79 0 -154 -30t-135.5 -85t-97.5 -143t-37 -195t35 -195t95.5 -145t140.5 -88t170 -31q242 0 389 201l202 -215q-193 -233 -489 -264l-104 -265h-293 l141 273q-268 47 -434 240.5t-166 482.5z" />
<glyph unicode="&#xc8;" horiz-adv-x="1314" d="M139 0v1436h1059v-281h-754v-285h719v-276h-719v-313h754v-281h-1059zM379 1786h348l152 -211h-299z" />
<glyph unicode="&#xc9;" horiz-adv-x="1314" d="M139 0v1436h1059v-281h-754v-285h719v-276h-719v-313h754v-281h-1059zM469 1575l152 211h348l-201 -211h-299z" />
<glyph unicode="&#xca;" horiz-adv-x="1314" d="M139 0v1436h1059v-281h-754v-285h719v-276h-719v-313h754v-281h-1059zM324 1575l176 211h356l174 -211h-274l-78 82l-78 -82h-276z" />
<glyph unicode="&#xcb;" horiz-adv-x="1314" d="M139 0v1436h1059v-281h-754v-285h719v-276h-719v-313h754v-281h-1059zM301 1669q0 62 44.5 107t107.5 45q62 0 107.5 -45.5t45.5 -106.5q0 -62 -45.5 -106.5t-107.5 -44.5q-63 0 -107.5 44t-44.5 107zM735 1669q0 62 44.5 107t107.5 45q62 0 107.5 -45.5t45.5 -106.5 q0 -62 -45.5 -106.5t-107.5 -44.5q-63 0 -107.5 44t-44.5 107z" />
<glyph unicode="&#xcc;" horiz-adv-x="606" d="M-23 1786h349l151 -211h-299zM152 0v1436h303v-1436h-303z" />
<glyph unicode="&#xcd;" horiz-adv-x="606" d="M121 1575l151 211h349l-201 -211h-299zM152 0v1436h303v-1436h-303z" />
<glyph unicode="&#xce;" horiz-adv-x="610" d="M-49 1575l176 211h356l174 -211h-274l-78 82l-78 -82h-276zM152 0v1436h303v-1436h-303z" />
<glyph unicode="&#xcf;" horiz-adv-x="606" d="M-66 1669q0 62 44.5 107t107.5 45q62 0 108 -45.5t46 -106.5q0 -62 -46 -106.5t-108 -44.5q-63 0 -107.5 44t-44.5 107zM152 0v1436h303v-1436h-303zM369 1669q0 62 44 107t107 45q62 0 108 -45.5t46 -106.5q0 -62 -46 -106.5t-108 -44.5q-63 0 -107 44t-44 107z" />
<glyph unicode="&#xd0;" horiz-adv-x="1564" d="M57 598v268h152v570h473q121 0 232.5 -23t216.5 -77t182 -134t123.5 -202t46.5 -273t-46.5 -275.5t-124 -206.5t-182 -138.5t-216.5 -81.5t-232 -25h-473v598h-152zM514 281h123q95 0 173.5 14t147 47t115.5 83.5t74 127t27 174.5q0 428 -539 428h-121v-289h234v-268 h-234v-317z" />
<glyph unicode="&#xd1;" horiz-adv-x="1529" d="M139 0v1436h367l579 -973v973h304v-1436h-365l-580 969v-969h-305zM428 1530q0 105 54 180.5t145 75.5q25 0 88 -14l84 -27q40 -12 61 -12t37.5 12.5t17.5 40.5h187q0 -104 -54 -180t-145 -76q-17 0 -33 3t-34.5 8t-20.5 5l-84 27q-33 10 -61 10q-22 0 -38.5 -12 t-17.5 -41h-186z" />
<glyph unicode="&#xd2;" horiz-adv-x="1644" d="M82 719q0 158 57.5 296.5t156 235t234.5 152t289 55.5q204 0 374 -94t270 -264t100 -381q0 -212 -100 -383t-269.5 -265t-374.5 -94q-153 0 -289 55.5t-234.5 152.5t-156 235.5t-57.5 298.5zM395 719q0 -125 50.5 -227.5t150 -165t231.5 -62.5q129 0 227.5 62.5 t148.5 165t50 227.5q0 188 -120 320t-306 132q-197 0 -314.5 -131t-117.5 -321zM479 1786h348l152 -211h-299z" />
<glyph unicode="&#xd3;" horiz-adv-x="1644" d="M82 719q0 158 57.5 296.5t156 235t234.5 152t289 55.5q204 0 374 -94t270 -264t100 -381q0 -212 -100 -383t-269.5 -265t-374.5 -94q-153 0 -289 55.5t-234.5 152.5t-156 235.5t-57.5 298.5zM395 719q0 -125 50.5 -227.5t150 -165t231.5 -62.5q129 0 227.5 62.5 t148.5 165t50 227.5q0 188 -120 320t-306 132q-197 0 -314.5 -131t-117.5 -321zM633 1575l151 211h349l-201 -211h-299z" />
<glyph unicode="&#xd4;" horiz-adv-x="1644" d="M82 719q0 158 57.5 296.5t156 235t234.5 152t289 55.5q204 0 374 -94t270 -264t100 -381q0 -212 -100 -383t-269.5 -265t-374.5 -94q-153 0 -289 55.5t-234.5 152.5t-156 235.5t-57.5 298.5zM395 719q0 -125 50.5 -227.5t150 -165t231.5 -62.5q129 0 227.5 62.5 t148.5 165t50 227.5q0 188 -120 320t-306 132q-197 0 -314.5 -131t-117.5 -321zM463 1575l176 211h356l174 -211h-274l-78 82l-78 -82h-276z" />
<glyph unicode="&#xd5;" horiz-adv-x="1644" d="M82 719q0 158 57.5 296.5t156 235t234.5 152t289 55.5q204 0 374 -94t270 -264t100 -381q0 -212 -100 -383t-269.5 -265t-374.5 -94q-153 0 -289 55.5t-234.5 152.5t-156 235.5t-57.5 298.5zM395 719q0 -125 50.5 -227.5t150 -165t231.5 -62.5q129 0 227.5 62.5 t148.5 165t50 227.5q0 188 -120 320t-306 132q-197 0 -314.5 -131t-117.5 -321zM475 1530q0 105 54 180.5t145 75.5q25 0 88 -14l84 -27q40 -12 61 -12t38 12.5t18 40.5h186q0 -104 -54 -180t-145 -76q-17 0 -33 3t-34.5 8t-20.5 5l-84 27q-33 10 -61 10q-53 0 -55 -53h-187 z" />
<glyph unicode="&#xd6;" horiz-adv-x="1644" d="M82 719q0 158 57.5 296.5t156 235t234.5 152t289 55.5q204 0 374 -94t270 -264t100 -381q0 -212 -100 -383t-269.5 -265t-374.5 -94q-153 0 -289 55.5t-234.5 152.5t-156 235.5t-57.5 298.5zM395 719q0 -125 50.5 -227.5t150 -165t231.5 -62.5q129 0 227.5 62.5 t148.5 165t50 227.5q0 188 -120 320t-306 132q-197 0 -314.5 -131t-117.5 -321zM451 1669q0 62 44 107t107 45q62 0 108 -45.5t46 -106.5q0 -62 -46 -106.5t-108 -44.5q-63 0 -107 44t-44 107zM885 1669q0 62 44 107t107 45q62 0 108 -45.5t46 -106.5q0 -62 -46 -106.5 t-108 -44.5q-63 0 -107 44t-44 107z" />
<glyph unicode="&#xd7;" horiz-adv-x="1234" d="M129 211l295 293l-291 293l195 192l290 -291l289 291l195 -192l-289 -293l293 -293l-193 -195l-295 295l-296 -295z" />
<glyph unicode="&#xd8;" horiz-adv-x="1644" d="M82 719q0 158 57.5 296.5t156 235t234.5 152t289 55.5q162 0 314 -65l86 123l198 -144l-80 -115q107 -101 166.5 -239t59.5 -299q0 -212 -100 -383t-269.5 -265t-374.5 -94q-180 0 -330 72l-86 -123l-196 142l84 120q-99 101 -154 237t-55 294zM395 719q0 -155 76 -273 l492 703q-68 22 -136 22q-197 0 -314.5 -131t-117.5 -321zM662 293q79 -29 165 -29q129 0 227.5 62.5t148.5 165t50 227.5q0 163 -94 287z" />
<glyph unicode="&#xd9;" horiz-adv-x="1437" d="M117 637v799h303v-813q0 -163 75.5 -265t223.5 -102q299 0 299 371v809h303v-799q0 -322 -160 -491t-442 -169t-442 169t-160 491zM406 1786h348l151 -211h-299z" />
<glyph unicode="&#xda;" horiz-adv-x="1437" d="M117 637v799h303v-813q0 -163 75.5 -265t223.5 -102q299 0 299 371v809h303v-799q0 -322 -160 -491t-442 -169t-442 169t-160 491zM528 1575l152 211h348l-201 -211h-299z" />
<glyph unicode="&#xdb;" horiz-adv-x="1437" d="M117 637v799h303v-813q0 -163 75.5 -265t223.5 -102q299 0 299 371v809h303v-799q0 -322 -160 -491t-442 -169t-442 169t-160 491zM362 1575l177 211h356l174 -211h-274l-78 82l-78 -82h-277z" />
<glyph unicode="&#xdc;" horiz-adv-x="1437" d="M117 637v799h303v-813q0 -163 75.5 -265t223.5 -102q299 0 299 371v809h303v-799q0 -322 -160 -491t-442 -169t-442 169t-160 491zM350 1669q0 62 44.5 107t107.5 45q62 0 107.5 -45.5t45.5 -106.5q0 -62 -45.5 -106.5t-107.5 -44.5q-63 0 -107.5 44t-44.5 107zM784 1669 q0 62 44.5 107t107.5 45q62 0 108 -45.5t46 -106.5q0 -62 -46 -106.5t-108 -44.5q-63 0 -107.5 44t-44.5 107z" />
<glyph unicode="&#xdd;" horiz-adv-x="1280" d="M12 1436h332l295 -605l297 605h332l-480 -934v-502h-301v502zM459 1575l151 211h348l-200 -211h-299z" />
<glyph unicode="&#xde;" horiz-adv-x="1304" d="M139 0v1436h305v-211h242q253 0 407 -129t154 -351q0 -224 -155 -361.5t-406 -137.5h-242v-246h-305zM444 524h189q311 0 311 213q0 108 -77 158.5t-234 50.5h-189v-422z" />
<glyph unicode="&#xdf;" horiz-adv-x="1296" d="M117 0v881q0 267 149 422t400 155q128 0 238.5 -53.5t178.5 -151t68 -217.5q0 -91 -37 -170.5t-94 -122.5q194 -117 194 -331q0 -88 -32 -166.5t-91 -138.5t-151 -95t-205 -35q-200 0 -297 99l144 207q37 -37 123 -37q100 0 158.5 49.5t58.5 128.5q0 78 -57 119t-160 41 h-140v268h99q90 0 141 48t51 122q0 73 -54 120.5t-145 47.5q-249 0 -249 -309v-881h-291z" />
<glyph unicode="&#xe0;" horiz-adv-x="1077" d="M70 295q0 106 57 181t145 108.5t195 33.5q103 0 201 -28v16q0 72 -45.5 118t-122.5 46q-62 0 -119.5 -29.5t-95.5 -87.5l-185 176q167 199 420 199q190 0 315.5 -107.5t125.5 -293.5v-627h-289v66q-101 -89 -254 -89q-159 0 -253.5 90t-94.5 228zM213 1436h369l151 -291 h-274zM362 313q0 -40 35 -65t90 -25q99 0 181 62v114q-83 19 -136 19q-83 0 -126.5 -29t-43.5 -76z" />
<glyph unicode="&#xe1;" horiz-adv-x="1077" d="M70 295q0 106 57 181t145 108.5t195 33.5q103 0 201 -28v16q0 72 -45.5 118t-122.5 46q-62 0 -119.5 -29.5t-95.5 -87.5l-185 176q167 199 420 199q190 0 315.5 -107.5t125.5 -293.5v-627h-289v66q-101 -89 -254 -89q-159 0 -253.5 90t-94.5 228zM334 1145l151 291h369 l-246 -291h-274zM362 313q0 -40 35 -65t90 -25q99 0 181 62v114q-83 19 -136 19q-83 0 -126.5 -29t-43.5 -76z" />
<glyph unicode="&#xe2;" horiz-adv-x="1077" d="M70 295q0 106 57 181t145 108.5t195 33.5q103 0 201 -28v16q0 72 -45.5 118t-122.5 46q-62 0 -119.5 -29.5t-95.5 -87.5l-185 176q167 199 420 199q190 0 315.5 -107.5t125.5 -293.5v-627h-289v66q-101 -89 -254 -89q-159 0 -253.5 90t-94.5 228zM170 1145l186 291h334 l187 -291h-252l-103 121l-100 -121h-252zM362 313q0 -40 35 -65t90 -25q99 0 181 62v114q-83 19 -136 19q-83 0 -126.5 -29t-43.5 -76z" />
<glyph unicode="&#xe3;" horiz-adv-x="1077" d="M70 295q0 106 57 181t145 108.5t195 33.5q103 0 201 -28v16q0 72 -45.5 118t-122.5 46q-62 0 -119.5 -29.5t-95.5 -87.5l-185 176q167 199 420 199q190 0 315.5 -107.5t125.5 -293.5v-627h-289v66q-101 -89 -254 -89q-159 0 -253.5 90t-94.5 228zM184 1180 q0 105 54 180.5t145 75.5q21 0 88 -15l84 -26q43 -13 61 -13q21 0 38 13t18 41h186q0 -104 -54 -180t-145 -76q-17 0 -33 3t-34.5 8t-20.5 5l-84 27q-33 10 -61 10q-53 0 -55 -53h-187zM362 313q0 -40 35 -65t90 -25q99 0 181 62v114q-83 19 -136 19q-83 0 -126.5 -29 t-43.5 -76z" />
<glyph unicode="&#xe4;" horiz-adv-x="1077" d="M70 295q0 106 57 181t145 108.5t195 33.5q103 0 201 -28v16q0 72 -45.5 118t-122.5 46q-62 0 -119.5 -29.5t-95.5 -87.5l-185 176q167 199 420 199q190 0 315.5 -107.5t125.5 -293.5v-627h-289v66q-101 -89 -254 -89q-159 0 -253.5 90t-94.5 228zM156 1307q0 62 44 106.5 t107 44.5q62 0 108 -45t46 -106q0 -62 -46 -107t-108 -45q-63 0 -107 44.5t-44 107.5zM362 313q0 -40 35 -65t90 -25q99 0 181 62v114q-83 19 -136 19q-83 0 -126.5 -29t-43.5 -76zM590 1307q0 62 44 106.5t107 44.5q62 0 108 -45t46 -106q0 -62 -46 -107t-108 -45 q-63 0 -107 44.5t-44 107.5z" />
<glyph unicode="&#xe5;" horiz-adv-x="1077" d="M70 295q0 106 57 181t145 108.5t195 33.5q103 0 201 -28v16q0 72 -45.5 118t-122.5 46q-62 0 -119.5 -29.5t-95.5 -87.5l-185 176q167 199 420 199q190 0 315.5 -107.5t125.5 -293.5v-627h-289v66q-101 -89 -254 -89q-159 0 -253.5 90t-94.5 228zM346 1284q0 72 52 123 t126 51t126 -51t52 -123t-52 -123t-126 -51t-126 51t-52 123zM362 313q0 -40 35 -65t90 -25q99 0 181 62v114q-83 19 -136 19q-83 0 -126.5 -29t-43.5 -76zM475 1284q0 -21 14 -34t35 -13t35 13t14 34t-14 34t-35 13t-35 -13t-14 -34z" />
<glyph unicode="&#xe6;" horiz-adv-x="1699" d="M70 295q0 106 57 181t145 108.5t195 33.5h207q0 67 -49.5 103.5t-124.5 36.5q-137 0 -215 -109l-185 174q152 205 420 205q87 0 167 -33.5t136 -95.5q135 129 330 129q95 0 174.5 -29t134.5 -78.5t93.5 -116t56.5 -139.5t18 -151l-2 -86h-665q8 -82 67.5 -133t155.5 -51 q75 0 127.5 31t93.5 96l205 -191q-75 -95 -175 -149t-249 -54q-220 0 -365 132q-167 -132 -368 -132q-176 0 -280.5 90t-104.5 228zM362 311q0 -39 31.5 -63.5t87.5 -24.5q58 0 117 23.5t98 58.5q-17 56 -22 103h-154q-158 0 -158 -97zM977 623h346q-5 65 -49 107t-113 42 q-78 0 -123.5 -41t-60.5 -108z" />
<glyph unicode="&#xe7;" horiz-adv-x="1099" d="M70 502q0 225 152 375.5t378 150.5q134 0 233.5 -52t186.5 -149l-197 -190q-95 117 -213 117q-104 0 -173.5 -71.5t-69.5 -180.5t69.5 -180.5t173.5 -71.5q133 0 234 131l196 -191q-124 -164 -319 -200l-107 -271h-292l141 275q-175 42 -284 180.5t-109 327.5z" />
<glyph unicode="&#xe8;" horiz-adv-x="1116" d="M70 496q0 229 138.5 380.5t354.5 151.5q117 0 211.5 -44t152.5 -118t89 -164.5t31 -187.5l-3 -86h-679q12 -81 71.5 -132.5t153.5 -51.5q155 0 246 116l192 -180q-161 -203 -430 -203q-229 0 -378.5 143t-149.5 376zM211 1436h369l151 -291h-274zM379 623h360 q-5 64 -52 106.5t-118 42.5q-78 0 -127 -41.5t-63 -107.5z" />
<glyph unicode="&#xe9;" horiz-adv-x="1116" d="M70 496q0 -233 149.5 -376t378.5 -143q269 0 430 203l-192 180q-91 -116 -246 -116q-94 0 -153.5 51.5t-71.5 132.5h679q3 51 3 86q0 97 -31 187.5t-89 164.5t-152.5 118t-211.5 44q-216 0 -354.5 -151.5t-138.5 -380.5zM379 623q14 66 63 107.5t127 41.5q71 0 118 -42.5 t52 -106.5h-360zM379 1145l151 291h369l-246 -291h-274z" />
<glyph unicode="&#xea;" horiz-adv-x="1116" d="M70 496q0 229 138.5 380.5t354.5 151.5q117 0 211.5 -44t152.5 -118t89 -164.5t31 -187.5l-3 -86h-679q12 -81 71.5 -132.5t153.5 -51.5q155 0 246 116l192 -180q-161 -203 -430 -203q-229 0 -378.5 143t-149.5 376zM205 1145l186 291h334l186 -291h-252l-102 121 l-100 -121h-252zM379 623h360q-5 64 -52 106.5t-118 42.5q-78 0 -127 -41.5t-63 -107.5z" />
<glyph unicode="&#xeb;" horiz-adv-x="1116" d="M70 496q0 -233 149.5 -376t378.5 -143q269 0 430 203l-192 180q-91 -116 -246 -116q-94 0 -153.5 51.5t-71.5 132.5h679q3 51 3 86q0 97 -31 187.5t-89 164.5t-152.5 118t-211.5 44q-216 0 -354.5 -151.5t-138.5 -380.5zM195 1307q0 62 44 106.5t107 44.5q62 0 108 -45 t46 -106q0 -62 -46 -107t-108 -45q-63 0 -107 44.5t-44 107.5zM379 623q14 66 63 107.5t127 41.5q71 0 118 -42.5t52 -106.5h-360zM629 1307q0 62 44 106.5t107 44.5q62 0 108 -45t46 -106q0 -62 -46 -107t-108 -45q-63 0 -107 44.5t-44 107.5z" />
<glyph unicode="&#xec;" horiz-adv-x="544" d="M-80 1436h369l151 -291h-274zM129 0v1004h293v-1004h-293z" />
<glyph unicode="&#xed;" horiz-adv-x="548" d="M106 1145l152 291h369l-246 -291h-275zM129 0v1004h293v-1004h-293z" />
<glyph unicode="&#xee;" horiz-adv-x="552" d="M-76 1145l187 291h333l187 -291h-252l-103 121l-100 -121h-252zM129 0v1004h293v-1004h-293z" />
<glyph unicode="&#xef;" horiz-adv-x="598" d="M-72 1307q0 62 44.5 106.5t107.5 44.5q62 0 107.5 -45t45.5 -106q0 -63 -45.5 -107.5t-107.5 -44.5q-63 0 -107.5 44.5t-44.5 107.5zM152 0v1004h292v-1004h-292zM362 1307q0 62 44.5 106.5t107.5 44.5q62 0 108 -45t46 -106q0 -62 -46 -107t-108 -45q-63 0 -107.5 44.5 t-44.5 107.5z" />
<glyph unicode="&#xf0;" horiz-adv-x="1171" d="M82 461q0 109 39.5 200.5t105 150.5t149.5 91.5t175 32.5q60 0 100 -16l-106 143l-226 -129v221l109 62l-162 219h320l65 -93l199 115v-221l-86 -49l131 -180q184 -254 184 -506q0 -101 -33 -194.5t-93.5 -167.5t-157 -118.5t-213.5 -44.5q-222 0 -361 139t-139 345z M379 455q0 -86 53 -145.5t141 -59.5q89 0 143 59.5t54 145.5q0 88 -53.5 147.5t-143.5 59.5q-88 0 -141 -59.5t-53 -147.5z" />
<glyph unicode="&#xf1;" horiz-adv-x="1167" d="M129 0h291v502q0 256 184 256q83 0 124.5 -55.5t41.5 -141.5v-561h293v584q0 210 -111 327t-299 117q-139 0 -237 -94v70h-287v-1004zM258 1180q0 105 54 180.5t145 75.5q21 0 88 -15l84 -26q43 -13 61 -13q21 0 37.5 13t17.5 41h187q0 -104 -54 -180t-145 -76 q-17 0 -33 3t-34.5 8t-20.5 5l-84 27q-33 10 -61 10q-22 0 -38.5 -12t-17.5 -41h-186z" />
<glyph unicode="&#xf2;" horiz-adv-x="1200" d="M70 502q0 225 152 375.5t378 150.5t378 -150.5t152 -375.5t-152 -375t-378 -150t-378 150t-152 375zM236 1436h368l152 -291h-275zM367 502q0 -110 66 -182t167 -72t167.5 72t66.5 182t-66.5 182t-167.5 72t-167 -72t-66 -182z" />
<glyph unicode="&#xf3;" horiz-adv-x="1200" d="M70 502q0 225 152 375.5t378 150.5t378 -150.5t152 -375.5t-152 -375t-378 -150t-378 150t-152 375zM367 502q0 -110 66 -182t167 -72t167.5 72t66.5 182t-66.5 182t-167.5 72t-167 -72t-66 -182zM412 1145l151 291h369l-246 -291h-274z" />
<glyph unicode="&#xf4;" horiz-adv-x="1200" d="M70 502q0 225 152 375.5t378 150.5t378 -150.5t152 -375.5t-152 -375t-378 -150t-378 150t-152 375zM250 1145l186 291h334l186 -291h-251l-103 121l-100 -121h-252zM367 502q0 -110 66 -182t167 -72t167.5 72t66.5 182t-66.5 182t-167.5 72t-167 -72t-66 -182z" />
<glyph unicode="&#xf5;" horiz-adv-x="1200" d="M70 502q0 225 152 375.5t378 150.5t378 -150.5t152 -375.5t-152 -375t-378 -150t-378 150t-152 375zM252 1180q0 105 54 180.5t145 75.5q21 0 88 -15l84 -26q43 -13 61 -13q21 0 37.5 13t17.5 41h187q0 -104 -54 -180t-145 -76q-17 0 -33 3t-34.5 8t-20.5 5l-84 27 q-33 10 -61 10q-22 0 -38.5 -12t-17.5 -41h-186zM367 502q0 -110 66 -182t167 -72t167.5 72t66.5 182t-66.5 182t-167.5 72t-167 -72t-66 -182z" />
<glyph unicode="&#xf6;" horiz-adv-x="1200" d="M70 502q0 225 152 375.5t378 150.5t378 -150.5t152 -375.5t-152 -375t-378 -150t-378 150t-152 375zM233 1307q0 62 44.5 106.5t107.5 44.5q62 0 108 -45t46 -106q0 -62 -46 -107t-108 -45q-63 0 -107.5 44.5t-44.5 107.5zM367 502q0 -110 66 -182t167 -72t167.5 72 t66.5 182t-66.5 182t-167.5 72t-167 -72t-66 -182zM668 1307q0 62 44 106.5t107 44.5q62 0 108 -45t46 -106q0 -62 -46 -107t-108 -45q-63 0 -107 44.5t-44 107.5z" />
<glyph unicode="&#xf7;" horiz-adv-x="1329" d="M152 399v252h1026v-252h-1026zM500 139q0 69 47.5 117.5t116.5 48.5q68 0 116.5 -48.5t48.5 -117.5q0 -67 -48.5 -114.5t-116.5 -47.5q-69 0 -116.5 47t-47.5 115zM500 907q0 69 47.5 117.5t116.5 48.5q68 0 116.5 -48.5t48.5 -117.5q0 -67 -48.5 -114.5t-116.5 -47.5 q-69 0 -116.5 47t-47.5 115z" />
<glyph unicode="&#xf8;" horiz-adv-x="1222" d="M82 502q0 225 152 375.5t378 150.5q115 0 211 -41l66 92l160 -114l-62 -86q156 -153 156 -377q0 -225 -152.5 -375t-378.5 -150q-117 0 -225 46l-68 -97l-157 113l65 94q-69 70 -107 165.5t-38 203.5zM379 502q0 -66 24 -119l256 367q-24 6 -47 6q-101 0 -167 -72 t-66 -182zM551 256q24 -8 61 -8q101 0 167.5 72t66.5 182q0 71 -31 131z" />
<glyph unicode="&#xf9;" horiz-adv-x="1144" d="M104 420v584h293v-572q0 -85 39 -135.5t115 -50.5q92 0 132 61t40 182v515h293v-1004h-287v70q-90 -93 -250 -93q-176 0 -275.5 115.5t-99.5 327.5zM205 1436h368l152 -291h-274z" />
<glyph unicode="&#xfa;" horiz-adv-x="1144" d="M104 420q0 -212 99.5 -327.5t275.5 -115.5q160 0 250 93v-70h287v1004h-293v-515q0 -121 -40 -182t-132 -61q-76 0 -115 50.5t-39 135.5v572h-293v-584zM393 1145l152 291h368l-245 -291h-275z" />
<glyph unicode="&#xfb;" horiz-adv-x="1144" d="M104 420v584h293v-572q0 -85 39 -135.5t115 -50.5q92 0 132 61t40 182v515h293v-1004h-287v70q-90 -93 -250 -93q-176 0 -275.5 115.5t-99.5 327.5zM199 1145l186 291h334l186 -291h-252l-102 121l-100 -121h-252z" />
<glyph unicode="&#xfc;" horiz-adv-x="1144" d="M104 420q0 -212 99.5 -327.5t275.5 -115.5q160 0 250 93v-70h287v1004h-293v-515q0 -121 -40 -182t-132 -61q-76 0 -115 50.5t-39 135.5v572h-293v-584zM184 1307q0 62 44.5 106.5t107.5 44.5q62 0 107.5 -45t45.5 -106q0 -63 -45.5 -107.5t-107.5 -44.5 q-63 0 -107.5 44.5t-44.5 107.5zM618 1307q0 62 44.5 106.5t107.5 44.5q62 0 108 -45t46 -106q0 -62 -46 -107t-108 -45q-63 0 -107.5 44.5t-44.5 107.5z" />
<glyph unicode="&#xfd;" horiz-adv-x="1118" d="M12 1004l391 -1004l-163 -397h307l559 1401h-311l-234 -621l-225 621h-324zM397 1145l152 291h369l-246 -291h-275z" />
<glyph unicode="&#xfe;" horiz-adv-x="1249" d="M129 -397v1833h287v-504q43 41 112.5 68.5t149.5 27.5q103 0 194.5 -37t160 -103.5t108 -166.5t39.5 -219q0 -116 -39.5 -215t-107.5 -166.5t-160 -105.5t-195 -38q-81 0 -148.5 24.5t-109.5 61.5v-460h-291zM416 502q0 -116 66 -189t167 -73t167.5 73t66.5 189 t-66.5 189t-167.5 73t-167 -73t-66 -189z" />
<glyph unicode="&#xff;" horiz-adv-x="1140" d="M25 1004l391 -1004l-164 -397h307l559 1401h-311l-234 -621l-225 621h-323zM199 1307q0 62 44 106.5t107 44.5q62 0 108 -45t46 -106q0 -62 -46 -107t-108 -45q-63 0 -107 44.5t-44 107.5zM633 1307q0 62 44 106.5t107 44.5q62 0 108 -45t46 -106q0 -62 -46 -107 t-108 -45q-63 0 -107 44.5t-44 107.5z" />
<glyph unicode="&#x152;" horiz-adv-x="1966" d="M82 719q0 210 98.5 375t266 253.5t372.5 88.5h1030v-281h-637v-285h603v-276h-603v-313h637v-281h-1030q-154 0 -289 52t-234 144.5t-156.5 228t-57.5 294.5zM395 719q0 -191 116.5 -314.5t315.5 -123.5h80v874h-80q-132 0 -231.5 -58.5t-150 -156.5t-50.5 -221z" />
<glyph unicode="&#x153;" horiz-adv-x="1880" d="M70 502q0 225 152 375.5t378 150.5t377 -172q140 172 350 172q117 0 211 -44t151.5 -118t88 -164t30.5 -188l-2 -86h-678q8 -81 71 -132.5t159 -51.5q149 0 229 127l203 -191q-157 -203 -428 -203q-241 0 -385 170q-144 -170 -377 -170q-226 0 -378 150t-152 375z M367 502q0 -110 66 -182t167 -72q100 0 165.5 69.5t68.5 178.5v16q-3 106 -69.5 175t-164.5 69q-101 0 -167 -72t-66 -182zM1141 623h362q-5 64 -52 106.5t-118 42.5q-79 0 -127.5 -41.5t-64.5 -107.5z" />
<glyph unicode="&#x178;" horiz-adv-x="1302" d="M25 1436h331l295 -605l297 605h332l-479 -934v-502h-301v502zM283 1669q0 62 44 107t107 45q62 0 108 -45.5t46 -106.5q0 -62 -46 -106.5t-108 -44.5q-63 0 -107 44t-44 107zM717 1669q0 62 44 107t107 45q62 0 108 -45.5t46 -106.5q0 -62 -46 -106.5t-108 -44.5 q-63 0 -107 44t-44 107z" />
<glyph unicode="&#x2c6;" horiz-adv-x="1138" d="M227 1145l187 291h334l186 -291h-252l-102 121l-101 -121h-252z" />
<glyph unicode="&#x2dc;" horiz-adv-x="1189" d="M279 1180q0 105 53.5 180.5t144.5 75.5q20 0 88 -15l84 -26q43 -13 62 -13q21 0 37.5 13t17.5 41h186q0 -104 -53.5 -180t-144.5 -76q-17 0 -33 3t-34.5 8t-20.5 5l-84 27q-33 10 -62 10q-53 0 -55 -53h-186z" />
<glyph unicode="&#x2000;" horiz-adv-x="910" />
<glyph unicode="&#x2001;" horiz-adv-x="1821" />
<glyph unicode="&#x2002;" horiz-adv-x="910" />
<glyph unicode="&#x2003;" horiz-adv-x="1821" />
<glyph unicode="&#x2004;" horiz-adv-x="607" />
<glyph unicode="&#x2005;" horiz-adv-x="455" />
<glyph unicode="&#x2006;" horiz-adv-x="303" />
<glyph unicode="&#x2007;" horiz-adv-x="303" />
<glyph unicode="&#x2008;" horiz-adv-x="227" />
<glyph unicode="&#x2009;" horiz-adv-x="364" />
<glyph unicode="&#x200a;" horiz-adv-x="101" />
<glyph unicode="&#x2010;" horiz-adv-x="1028" d="M129 406v262h770v-262h-770z" />
<glyph unicode="&#x2011;" horiz-adv-x="1028" d="M129 406v262h770v-262h-770z" />
<glyph unicode="&#x2012;" horiz-adv-x="1028" d="M129 406v262h770v-262h-770z" />
<glyph unicode="&#x2013;" horiz-adv-x="1189" d="M129 406v262h934v-262h-934z" />
<glyph unicode="&#x2014;" horiz-adv-x="1785" d="M129 406v262h1528v-262h-1528z" />
<glyph unicode="&#x2018;" horiz-adv-x="620" d="M57 1436h312l194 -480h-282z" />
<glyph unicode="&#x2019;" horiz-adv-x="620" d="M35 956l194 480h312l-224 -480h-282z" />
<glyph unicode="&#x201a;" horiz-adv-x="583" d="M12 -252l195 485h317l-223 -485h-289z" />
<glyph unicode="&#x201c;" horiz-adv-x="1073" d="M57 1436h312l194 -480h-282zM512 1436h309l195 -480h-283z" />
<glyph unicode="&#x201d;" horiz-adv-x="1073" d="M35 956l194 480h310l-222 -480h-282zM487 956l195 480h311l-223 -480h-283z" />
<glyph unicode="&#x201e;" horiz-adv-x="1034" d="M12 -252l195 485h317l-223 -485h-289zM463 -252l194 485h318l-223 -485h-289z" />
<glyph unicode="&#x2022;" horiz-adv-x="897" d="M152 537q0 125 86 211t211 86q124 0 210 -86t86 -211t-86 -211t-210 -86q-125 0 -211 86t-86 211z" />
<glyph unicode="&#x2026;" horiz-adv-x="1640" d="M106 156q0 74 51 125t124 51q74 0 126 -51.5t52 -124.5t-52 -124.5t-126 -51.5q-73 0 -124 51t-51 125zM645 156q0 74 50.5 125t123.5 51q74 0 126 -51.5t52 -124.5t-52 -124.5t-126 -51.5q-73 0 -123.5 51t-50.5 125zM1184 156q0 74 50.5 125t123.5 51q74 0 126 -51.5 t52 -124.5t-52 -124.5t-126 -51.5q-73 0 -123.5 51t-50.5 125z" />
<glyph unicode="&#x202f;" horiz-adv-x="364" />
<glyph unicode="&#x2039;" horiz-adv-x="757" d="M82 502l280 502h316l-285 -502l285 -502h-316z" />
<glyph unicode="&#x203a;" horiz-adv-x="757" d="M57 0l285 502l-285 502h316l280 -502l-280 -502h-316z" />
<glyph unicode="&#x205f;" horiz-adv-x="455" />
<glyph unicode="&#x20ac;" horiz-adv-x="1454" d="M117 403v250h129q-2 20 -2 62v55h-127v250h172q68 205 224.5 321.5t371.5 116.5q156 0 277 -58.5t190 -152.5l-201 -209q-52 74 -115 108t-153 34q-83 0 -152.5 -41t-116.5 -119h390v-250h-457q-2 -18 -2 -55q0 -44 2 -62h457v-250h-388q44 -72 113.5 -109.5t155.5 -37.5 q98 0 162.5 32t123.5 101l201 -217q-186 -195 -489 -195q-216 0 -369.5 113t-222.5 313h-174z" />
<glyph unicode="&#x2122;" horiz-adv-x="1794" d="M47 1229v207h639v-207h-209v-598h-225v598h-205zM791 631v805h278l160 -432l160 432h276v-805h-221v426l-113 -307h-203l-114 307v-426h-223z" />
</font>
</defs>
</svg>
