<?xml version="1.0" standalone="no"?>
<!DOCTYPE svg PUBLIC "-//W3C//DTD SVG 1.1//EN" "http://www.w3.org/Graphics/SVG/1.1/DTD/svg11.dtd" >
<svg xmlns="http://www.w3.org/2000/svg">
<metadata></metadata>
<defs>
<font id="maaxmedium" horiz-adv-x="1138" >
<font-face units-per-em="2048" ascent="1536" descent="-512" />
<missing-glyph horiz-adv-x="512" />
<glyph unicode="&#xfb01;" horiz-adv-x="1353" d="M70 795v209h170v51q0 190 103.5 285.5t301.5 95.5l92 -2v-211q-41 2 -55 2q-109 0 -160 -48t-51 -157v-16h711v-1004h-234v795h-477v-795h-231v795h-170zM920 1300q0 62 43 105t104 43t104 -43t43 -105t-43 -104.5t-104 -42.5t-104 42.5t-43 104.5z" />
<glyph unicode="&#xfb02;" horiz-adv-x="1361" d="M70 795v209h170v51q0 190 103.5 285.5t301.5 95.5h553v-1436h-233v1225h-283q-109 0 -160 -48t-51 -157v-16h264v-209h-264v-795h-231v795h-170z" />
<glyph horiz-adv-x="2048" />
<glyph horiz-adv-x="2048" />
<glyph unicode="&#xd;" horiz-adv-x="2048" />
<glyph unicode=" "  horiz-adv-x="512" />
<glyph unicode="&#x09;" horiz-adv-x="512" />
<glyph unicode="&#xa0;" horiz-adv-x="512" />
<glyph unicode="!" horiz-adv-x="667" d="M188 123q0 61 43 104t105 43t104.5 -43t42.5 -104q0 -60 -43 -103t-104 -43t-104.5 43t-43.5 103zM213 432v1004h242v-1004h-242z" />
<glyph unicode="&#x22;" horiz-adv-x="929" d="M152 887v549h233v-549h-233zM545 887v549h233v-549h-233z" />
<glyph unicode="#" horiz-adv-x="1798" d="M164 369v215h291l77 270h-262v213h320l108 369h232l-109 -369h350l107 369h233l-108 -369h231v-213h-288l-78 -270h260v-215h-322l-102 -369h-234l107 369h-350l-107 -369h-231l106 369h-231zM686 584h350l78 270h-350z" />
<glyph unicode="$" horiz-adv-x="1378" d="M129 252l166 168q126 -167 299 -207v410q-205 36 -317.5 144t-112.5 282q0 167 122 275.5t308 127.5v217h197v-221q234 -36 409 -219l-170 -180q-109 129 -239 168v-381q231 -37 344.5 -152t113.5 -291q0 -167 -121.5 -279t-336.5 -132v-215h-197v219q-283 36 -465 266z M410 1055q0 -143 184 -185v361q-91 -14 -137.5 -64.5t-46.5 -111.5zM791 201q102 12 157.5 63.5t55.5 124.5q0 154 -213 201v-389z" />
<glyph unicode="%" horiz-adv-x="1505" d="M117 1171q0 121 83 204t203 83t202.5 -83t82.5 -204q0 -119 -82.5 -201.5t-202.5 -82.5t-203 82.5t-83 201.5zM236 70l868 1413l168 -113l-871 -1417zM303 1171q0 -45 30 -73.5t70 -28.5q38 0 67.5 28.5t29.5 73.5q0 47 -29.5 77t-67.5 30q-40 0 -70 -29.5t-30 -77.5z M817 262q0 120 83.5 203.5t203.5 83.5t202.5 -83.5t82.5 -203.5t-82.5 -202.5t-202.5 -82.5t-203.5 82.5t-83.5 202.5zM1004 262q0 -45 30 -73.5t70 -28.5q37 0 66.5 28.5t29.5 73.5q0 47 -29 76t-67 29q-40 0 -70 -29t-30 -76z" />
<glyph unicode="&#x26;" horiz-adv-x="1406" d="M104 385q0 266 293 428l21 10q-73 103 -100 174.5t-27 147.5q0 134 101.5 222.5t262.5 88.5q159 0 263 -97.5t104 -234.5q0 -77 -39 -149t-89.5 -119t-111.5 -82l-20 -12l223 -285q37 65 56.5 114.5t39.5 131.5h248q-54 -249 -199 -442l220 -281h-287l-90 111 q-170 -134 -389 -134q-121 0 -216.5 36.5t-151 96.5t-84 130.5t-28.5 144.5zM344 393q0 -89 69 -147t165 -58q149 0 256 99l-281 362l-8 -4q-201 -100 -201 -252zM535 1124q0 -69 77 -172l15 -18l12 6q145 81 145 180q0 58 -37 91.5t-94 33.5q-45 0 -81.5 -33t-36.5 -88z " />
<glyph unicode="'" horiz-adv-x="536" d="M152 887v549h233v-549h-233z" />
<glyph unicode="(" horiz-adv-x="817" d="M164 532q0 149 34.5 292t95 262.5t132 217t156.5 181.5l163 -154q-337 -322 -337 -799q0 -453 340 -796l-166 -156q-85 83 -156.5 180.5t-132 217t-95 262.5t-34.5 292z" />
<glyph unicode=")" horiz-adv-x="817" d="M70 1329l166 156q85 -83 156.5 -180.5t132 -217t94.5 -263t34 -292.5t-34 -292t-94.5 -262t-132 -216.5t-156.5 -181.5l-164 154q338 323 338 798q0 454 -340 797z" />
<glyph unicode="*" horiz-adv-x="976" d="M117 1239l47 176l239 -76l-8 248h187l-11 -248l242 76l47 -176l-239 -55l159 -189l-153 -114l-140 209l-137 -209l-153 114l157 189z" />
<glyph unicode="+" horiz-adv-x="1331" d="M164 397v215h391v392h215v-392h397v-215h-397v-397h-215v397h-391z" />
<glyph unicode="," horiz-adv-x="612" d="M43 -283l209 516h256l-240 -516h-225z" />
<glyph unicode="-" horiz-adv-x="1073" d="M164 430v215h747v-215h-747z" />
<glyph unicode="." horiz-adv-x="667" d="M186 123q0 61 43 104t105 43t104.5 -43t42.5 -104q0 -60 -43 -103t-104 -43t-104.5 43t-43.5 103z" />
<glyph unicode="/" horiz-adv-x="1101" d="M150 0l604 1436h250l-603 -1436h-251z" />
<glyph unicode="0" horiz-adv-x="1327" d="M117 719q0 127 22 238.5t66.5 203.5t109 158t154 102.5t195.5 36.5q175 0 300 -98t185.5 -263t60.5 -378q0 -159 -35 -293.5t-102.5 -235t-172 -157t-236.5 -56.5q-106 0 -195.5 37t-154 103.5t-109 159t-66.5 204t-22 238.5zM362 719q0 -241 78 -380.5t224 -139.5 t223.5 139t77.5 381q0 241 -77.5 379.5t-223.5 138.5t-224 -138.5t-78 -379.5z" />
<glyph unicode="1" horiz-adv-x="1148" d="M139 0v221h357v907q-61 -48 -156.5 -76t-200.5 -28v215q78 3 148 22t134.5 64t96.5 111h221v-1215h340v-221h-940z" />
<glyph unicode="2" horiz-adv-x="1241" d="M117 0v47q0 253 108.5 407.5t378.5 290.5l37 19q114 57 163.5 116t49.5 152t-65 149t-177 56q-115 0 -202 -66.5t-134 -183.5l-159 160q62 139 192.5 225t296.5 86q78 0 150 -17t135 -53t110 -87t74 -123.5t27 -157.5q0 -147 -80.5 -254.5t-239.5 -187.5l-125 -64 q-55 -28 -93.5 -52.5t-80.5 -60.5t-67.5 -81t-32.5 -99h713v-221h-979z" />
<glyph unicode="3" horiz-adv-x="1249" d="M94 207l166 166q140 -174 344 -174q113 0 186.5 59.5t73.5 149.5q0 103 -81 156.5t-226 53.5h-106v226h84q146 0 220 56t74 153q0 92 -68 138t-165 46q-182 0 -309 -156l-158 158q194 219 465 219q93 0 176.5 -23t152.5 -69.5t109.5 -125t40.5 -179.5q0 -198 -170 -311 q84 -41 144.5 -129.5t60.5 -208.5q0 -104 -40 -187t-109.5 -137t-163 -82.5t-201.5 -28.5q-151 0 -283 63.5t-217 166.5z" />
<glyph unicode="4" horiz-adv-x="1273" d="M82 315v199l674 922h227v-899h199v-222h-199v-315h-246v315h-655zM348 537h389v544z" />
<glyph unicode="5" horiz-adv-x="1202" d="M117 205l170 168q134 -174 319 -174q123 0 202 75t79 191q0 112 -76.5 187t-189.5 75q-88 0 -154 -43t-102 -119h-222l35 871h840v-222h-615l-18 -352q106 86 262 86q74 0 143 -17.5t131.5 -55.5t109.5 -93.5t74.5 -137t27.5 -179.5q0 -214 -150 -351t-395 -137 q-151 0 -272.5 62t-198.5 166z" />
<glyph unicode="6" horiz-adv-x="1298" d="M129 731q0 326 162.5 526.5t421.5 200.5q130 0 236.5 -48.5t180.5 -135.5l-157 -162q-111 125 -266 125q-64 0 -122 -27.5t-105.5 -81t-77 -141.5t-33.5 -201q126 144 336 144q95 0 181 -33.5t152 -93t105 -150t39 -198.5q0 -111 -41 -203t-110 -151t-159 -91.5 t-190 -32.5q-264 0 -408.5 203.5t-144.5 550.5zM430 457q0 -107 72.5 -182.5t187.5 -75.5q109 0 177.5 69.5t68.5 186.5q0 113 -70 182.5t-184 69.5q-105 0 -178.5 -68.5t-73.5 -181.5z" />
<glyph unicode="7" horiz-adv-x="1165" d="M94 963v473h1002v-205q-213 -222 -340 -515.5t-156 -633.5l-6 -82h-248l6 80q30 336 143 625.5t293 508.5h-458v-251h-236z" />
<glyph unicode="8" horiz-adv-x="1251" d="M117 399q0 87 33 159.5t75 112.5t94 68q-67 39 -117 117.5t-50 192.5q0 184 133 296.5t342 112.5q208 0 340.5 -112.5t132.5 -296.5q0 -114 -50 -192.5t-118 -117.5q84 -45 143.5 -129.5t59.5 -210.5q0 -193 -141 -307.5t-367 -114.5q-227 0 -368.5 114.5t-141.5 307.5z M362 408q0 -101 76 -155t189 -54q111 0 186.5 54t75.5 155q0 103 -74.5 159t-187.5 56q-115 0 -190 -59t-75 -156zM397 1038q0 -89 62 -140.5t168 -51.5q103 0 165 51.5t62 140.5q0 51 -20.5 91t-54.5 62.5t-72.5 34t-79.5 11.5q-42 0 -81 -11.5t-73.5 -34t-55 -62.5 t-20.5 -91z" />
<glyph unicode="9" horiz-adv-x="1271" d="M117 981q0 111 40 202.5t108 151t156.5 91.5t188.5 32q262 0 403.5 -202t141.5 -551q0 -330 -157.5 -529t-426.5 -199q-130 0 -236.5 49t-180.5 136l157 162q111 -125 267 -125q64 0 122.5 27.5t107 80.5t77.5 141.5t30 200.5q-125 -143 -329 -143q-95 0 -180 33t-149 93 t-102 150.5t-38 198.5zM362 981q0 -114 67 -183t181 -69q104 0 174 68t70 182q0 108 -69.5 183t-184.5 75q-108 0 -173 -69t-65 -187z" />
<glyph unicode=":" horiz-adv-x="595" d="M137 123q0 61 43 104t105 43q61 0 104 -43t43 -104q0 -60 -43 -103t-104 -43t-104.5 43t-43.5 103zM137 879q0 61 43 104t105 43q61 0 104 -43t43 -104q0 -60 -43 -103t-104 -43t-104.5 43t-43.5 103z" />
<glyph unicode=";" horiz-adv-x="612" d="M23 -283l208 516h256l-239 -516h-225zM207 879q0 61 42.5 104t104.5 43t105 -43t43 -104q0 -60 -43.5 -103t-104.5 -43t-104 43t-43 103z" />
<glyph unicode="&#x3c;" horiz-adv-x="1239" d="M94 373v258l1006 397v-248l-750 -278l750 -279v-246z" />
<glyph unicode="=" horiz-adv-x="1331" d="M164 229v215h1003v-215h-1003zM164 631v215h1003v-215h-1003z" />
<glyph unicode="&#x3e;" horiz-adv-x="1239" d="M139 -23v246l750 279l-750 278v248l1006 -397v-258z" />
<glyph unicode="?" horiz-adv-x="1095" d="M47 1204q79 116 200 185t269 69q206 0 339.5 -119.5t133.5 -308.5q0 -160 -103 -273t-274 -147v-178h-241v375h67q128 0 217.5 59t89.5 168q0 92 -66 146.5t-161 54.5q-203 0 -315 -201zM344 123q0 62 42 104.5t103 42.5q62 0 105 -43t43 -104q0 -60 -43.5 -103 t-104.5 -43t-103 43t-42 103z" />
<glyph unicode="@" horiz-adv-x="2215" d="M139 506q0 213 75 392t206 301.5t312.5 190.5t391.5 68q217 0 396.5 -67t300.5 -185.5t187.5 -283t66.5 -357.5q0 -254 -126 -421t-327 -167q-164 0 -242 121q-135 -121 -315 -121q-217 0 -354.5 149t-137.5 376q0 149 62 269t174.5 188.5t255.5 68.5q175 0 285 -115v91 h229v-682q0 -136 90 -136q71 0 127 106.5t59 248.5q5 148 -42 278t-137.5 229t-233 156.5t-318.5 57.5q-212 0 -386 -91.5t-278 -265.5t-104 -399q0 -231 103 -396.5t283.5 -248t418.5 -82.5q204 0 393 71v-200q-182 -70 -405 -70q-294 0 -522 110.5t-358 322t-130 493.5z M813 502q0 -87 28 -158.5t90 -118.5t148 -47q127 0 199 95t72 229q0 133 -71.5 223t-199.5 90q-129 0 -197.5 -89.5t-68.5 -223.5z" />
<glyph unicode="A" horiz-adv-x="1413" d="M23 0l561 1436h245l560 -1436h-256l-121 305h-613l-118 -305h-258zM487 530h437l-219 574z" />
<glyph unicode="B" horiz-adv-x="1419" d="M164 0v1436h598q227 0 360 -95.5t133 -285.5q0 -191 -161 -307q100 -62 148 -150t48 -190q0 -188 -134 -298t-359 -110h-633zM408 221h319q71 0 126 10t99.5 33.5t68 65t23.5 100.5q0 191 -309 191h-327v-400zM408 844h305q66 0 117 9t92.5 29.5t63.5 58.5t22 91 q0 55 -23 92t-68 56t-96 26.5t-121 7.5h-292v-370z" />
<glyph unicode="C" horiz-adv-x="1433" d="M53 715q0 219 97.5 389t266 262t378.5 92q360 0 559 -270l-158 -164q-146 211 -397 211q-213 0 -354.5 -147.5t-141.5 -372.5q0 -222 143 -368t361 -146q253 0 414 215l153 -168q-215 -271 -571 -271q-213 0 -384 92.5t-268.5 261.5t-97.5 384z" />
<glyph unicode="D" horiz-adv-x="1482" d="M164 0v1436h448q101 0 192.5 -15t180.5 -47.5t161 -88.5t127 -132.5t85.5 -185t30.5 -240.5q0 -158 -44 -284t-117.5 -207.5t-175 -136t-210.5 -77t-230 -22.5h-448zM408 221h159q97 0 177 13.5t155.5 48t126.5 90.5t82 146t31 208q0 114 -31 200.5t-82 140t-126.5 87 t-156 46.5t-178.5 13h-157v-993z" />
<glyph unicode="E" horiz-adv-x="1314" d="M164 0v1436h1010v-222h-766v-370h731v-223h-731v-400h766v-221h-1010z" />
<glyph unicode="F" horiz-adv-x="1185" d="M164 0v1436h940v-222h-696v-370h649v-223h-649v-621h-244z" />
<glyph unicode="G" horiz-adv-x="1544" d="M94 715q0 164 57 303.5t155.5 235.5t235 150t292.5 54q358 0 561 -270l-160 -164q-146 211 -397 211q-213 0 -353.5 -147.5t-140.5 -372.5q0 -222 142.5 -368t361.5 -146q192 0 326 118v211h-330v222h571v-504q-99 -123 -256.5 -197t-339.5 -74q-197 0 -362 92t-264 262 t-99 384z" />
<glyph unicode="H" horiz-adv-x="1488" d="M164 0v1436h244v-592h673v592h246v-1436h-246v621h-673v-621h-244z" />
<glyph unicode="I" horiz-adv-x="571" d="M164 0v1436h244v-1436h-244z" />
<glyph unicode="J" horiz-adv-x="1060" d="M47 190l174 175q89 -166 240 -166q98 0 155.5 67t57.5 203v967h246v-942q0 -247 -120.5 -382t-348.5 -135q-257 0 -404 213z" />
<glyph unicode="K" horiz-adv-x="1363" d="M164 0v1436h244v-668l536 668h303l-485 -607l532 -829h-293l-407 623l-186 -228v-395h-244z" />
<glyph unicode="L" horiz-adv-x="1169" d="M164 0v1436h244v-1215h679v-221h-923z" />
<glyph unicode="M" horiz-adv-x="1703" d="M164 0v1436h256l432 -848l432 848h256v-1436h-244v946l-331 -629h-226l-331 629v-946h-244z" />
<glyph unicode="N" horiz-adv-x="1529" d="M164 0v1436h244l712 -1016v1016h246v-1436h-246l-712 1012v-1012h-244z" />
<glyph unicode="O" horiz-adv-x="1644" d="M94 719q0 154 56 291t152 235.5t230.5 155.5t286.5 57t287.5 -57t233 -155t154 -235.5t56.5 -291.5q0 -156 -56.5 -293.5t-154 -236t-233 -155.5t-287.5 -57t-286.5 57t-231 155.5t-152 236t-55.5 293.5zM344 719q0 -223 136 -370.5t347 -147.5q206 0 342 148t136 370 q0 143 -61.5 260.5t-171 185.5t-245.5 68q-210 0 -346.5 -147.5t-136.5 -366.5z" />
<glyph unicode="P" horiz-adv-x="1316" d="M164 0v1436h547q253 0 399.5 -123.5t146.5 -345.5q0 -223 -147 -350.5t-399 -127.5h-303v-489h-244zM408 713h272q334 0 334 252q0 249 -334 249h-272v-501z" />
<glyph unicode="Q" horiz-adv-x="1689" d="M94 719q0 154 56 291t152 235.5t230.5 155.5t286.5 57t287.5 -57t233 -155t154 -235.5t56.5 -291.5q0 -257 -145 -451l158 -155l-160 -160l-158 158q-185 -134 -426 -134q-152 0 -286.5 57t-231 155.5t-152 236t-55.5 293.5zM344 719q0 -223 136 -370.5t347 -147.5 q142 0 254 73l-184 187l158 157l180 -180q70 124 70 281q0 143 -61.5 260.5t-171 185.5t-245.5 68q-210 0 -346.5 -147.5t-136.5 -366.5z" />
<glyph unicode="R" horiz-adv-x="1363" d="M164 0v1436h547q253 0 399.5 -123.5t146.5 -345.5q0 -158 -76.5 -271t-215.5 -166l329 -530h-288l-301 489h-297v-489h-244zM408 713h272q334 0 334 252q0 249 -334 249h-272v-501z" />
<glyph unicode="S" horiz-adv-x="1353" d="M117 252l166 168q37 -48 74.5 -84t89.5 -69t121 -50.5t151 -17.5q131 0 201.5 53.5t70.5 136.5q0 164 -235 205l-174 29q-205 36 -317.5 144t-112.5 282q0 123 70 217.5t184 143t251 48.5q313 0 531 -229l-170 -180q-157 188 -371 188q-123 0 -186.5 -54.5t-63.5 -127.5 q0 -77 56 -126t182 -69l143 -24q231 -37 345 -152t114 -291q0 -184 -147.5 -300t-401.5 -116q-187 0 -330 75.5t-241 199.5z" />
<glyph unicode="T" horiz-adv-x="1247" d="M70 1214v222h1108v-222h-439v-1214h-243v1214h-426z" />
<glyph unicode="U" horiz-adv-x="1437" d="M139 637v799h246v-801q0 -436 334 -436t334 438v799h245v-799q0 -321 -156 -490.5t-423 -169.5t-423.5 169.5t-156.5 490.5z" />
<glyph unicode="V" horiz-adv-x="1366" d="M55 1436h252l377 -1141l371 1141h252l-490 -1436h-268z" />
<glyph unicode="W" horiz-adv-x="1914" d="M45 1436h260l250 -1049l262 1049h281l264 -1049l244 1049h262l-373 -1436h-270l-269 1038l-268 -1038h-268z" />
<glyph unicode="X" horiz-adv-x="1380" d="M57 0l492 735l-463 701h283l319 -500l324 500h282l-463 -701l490 -735h-283l-350 528l-348 -528h-283z" />
<glyph unicode="Y" horiz-adv-x="1300" d="M47 1436h260l344 -668l340 668h262l-481 -934v-502h-244v502z" />
<glyph unicode="Z" horiz-adv-x="1318" d="M129 0v211l745 1003h-741v222h1057v-211l-746 -1004h742v-221h-1057z" />
<glyph unicode="[" horiz-adv-x="786" d="M186 -397v1833h531v-219h-287v-1395h287v-219h-531z" />
<glyph unicode="\" horiz-adv-x="1089" d="M35 1436h250l706 -1680h-252z" />
<glyph unicode="]" horiz-adv-x="786" d="M70 -178h286v1395h-286v219h530v-1833h-530v219z" />
<glyph unicode="^" horiz-adv-x="1341" d="M117 700l440 736h225l443 -736h-252l-303 512l-303 -512h-250z" />
<glyph unicode="_" horiz-adv-x="1236" d="M117 -182h1003v-215h-1003v215z" />
<glyph unicode="`" d="M295 1436h287l186 -269h-229z" />
<glyph unicode="a" horiz-adv-x="1052" d="M94 283q0 111 57 188t149.5 112t211.5 35q99 0 203 -34v67q0 75 -56.5 120.5t-140.5 45.5q-158 0 -237 -145l-158 147q58 101 166.5 155t230.5 54q195 0 311.5 -96.5t116.5 -282.5v-649h-229v78q-116 -101 -287 -101q-142 0 -240 83t-98 223zM328 299q0 -50 39 -83.5 t112 -33.5q66 0 131.5 24.5t104.5 61.5v115q-105 41 -209 41q-82 0 -130 -32.5t-48 -92.5z" />
<glyph unicode="b" horiz-adv-x="1247" d="M141 0v1436h234v-506q114 98 280 98q215 0 352.5 -149.5t137.5 -376.5t-137.5 -376t-352.5 -149q-175 0 -284 113v-90h-230zM371 502q0 -135 70 -227.5t198 -92.5q127 0 197.5 93t70.5 227t-70.5 226.5t-197.5 92.5q-128 0 -198 -92t-70 -227z" />
<glyph unicode="c" horiz-adv-x="1103" d="M117 502q0 111 40 209t108 167.5t161 109.5t195 40q253 0 407 -201l-162 -155q-52 69 -108.5 106t-130.5 37q-119 0 -196 -88.5t-77 -224.5t78 -225t197 -89q87 0 144 38.5t114 117.5l160 -149q-66 -97 -173.5 -157.5t-252.5 -60.5q-209 0 -356.5 151t-147.5 374z" />
<glyph unicode="d" horiz-adv-x="1236" d="M92 502q0 227 137.5 376.5t352.5 149.5q166 0 280 -98v506h234v-1436h-230v90q-109 -113 -284 -113q-215 0 -352.5 149t-137.5 376zM330 502q0 -134 70.5 -227t197.5 -93q128 0 198 92.5t70 227.5t-70 227t-198 92q-127 0 -197.5 -92.5t-70.5 -226.5z" />
<glyph unicode="e" horiz-adv-x="1114" d="M92 496q0 146 55.5 266.5t164 193t249.5 72.5q117 0 207.5 -44t144 -118.5t80.5 -163.5t27 -188l-2 -82h-686q9 -114 80 -179t184 -65q162 0 258 142l158 -148q-159 -205 -416 -205q-225 0 -364.5 144.5t-139.5 374.5zM344 618h428q-1 36 -12 68.5t-34 62.5t-65 48 t-98 18q-91 0 -147.5 -58t-71.5 -139z" />
<glyph unicode="f" horiz-adv-x="712" d="M47 795v209h148v51q0 190 102.5 285.5t300.5 95.5l90 -2v-215q-30 2 -53 2q-108 0 -159.5 -48.5t-51.5 -156.5v-12h242v-209h-242v-795h-229v795h-148z" />
<glyph unicode="g" horiz-adv-x="1222" d="M102 524q0 219 135.5 361.5t344.5 142.5q166 0 272 -106v82h229v-922q0 -227 -135.5 -364.5t-359.5 -137.5q-91 0 -170.5 23.5t-134.5 62t-88.5 71t-57.5 66.5l168 160q96 -174 279 -174q120 0 193 71.5t73 209.5v51q-105 -98 -268 -98q-211 0 -345.5 141.5t-134.5 359.5 zM340 524q0 -128 69.5 -208t186.5 -80q116 0 187 80.5t71 207.5q0 129 -71 210t-187 81q-117 0 -186.5 -81t-69.5 -210z" />
<glyph unicode="h" horiz-adv-x="1146" d="M143 0v1436h234v-502q43 40 108 67t142 27q181 0 292 -117.5t111 -326.5v-584h-233v584q0 106 -52 169.5t-147 63.5q-107 0 -164 -70.5t-57 -191.5v-555h-234z" />
<glyph unicode="i" horiz-adv-x="520" d="M113 1309q0 61 42.5 103t104.5 42t105 -42t43 -103t-43 -104.5t-105 -43.5q-61 0 -104 43t-43 105zM141 0v1004h234v-1004h-234z" />
<glyph unicode="j" horiz-adv-x="634" d="M0 -184q30 -2 53 -2q109 0 148 36.5t39 145.5v1008h233v-1055q0 -189 -92 -273t-291 -84l-90 2v222zM213 1309q0 61 42.5 103t104.5 42q60 0 103 -42t43 -103t-43 -104.5t-103 -43.5q-61 0 -104 43t-43 105z" />
<glyph unicode="k" horiz-adv-x="1103" d="M143 0v1436h234v-822l348 390h291l-391 -435l409 -569h-266l-299 408l-92 -105v-303h-234z" />
<glyph unicode="l" horiz-adv-x="520" d="M143 0v1436h234v-1436h-234z" />
<glyph unicode="m" horiz-adv-x="1742" d="M143 0v1004h230v-89q40 47 106 80t154 33q186 0 280 -131q117 131 314 131q199 0 299 -114t100 -330v-584h-233v600q0 100 -48.5 158.5t-136.5 58.5q-99 0 -154 -67t-55 -179v-571h-231v600q0 100 -48 158.5t-136 58.5q-99 0 -153 -66.5t-54 -179.5v-571h-234z" />
<glyph unicode="n" horiz-adv-x="1136" d="M133 0v1004h229v-82q41 46 109.5 76t151.5 30q186 0 291.5 -116t105.5 -328v-584h-234v584q0 107 -51.5 170t-146.5 63q-107 0 -164 -70.5t-57 -191.5v-555h-234z" />
<glyph unicode="o" horiz-adv-x="1220" d="M92 502q0 148 68.5 269t187 189t262.5 68q218 0 368 -151t150 -375t-150 -374.5t-368 -150.5q-144 0 -262.5 68t-187 188.5t-68.5 268.5zM330 502q0 -137 78.5 -225.5t201.5 -88.5q121 0 200 88.5t79 225.5q0 136 -78.5 224.5t-200.5 88.5q-123 0 -201.5 -88t-78.5 -225z " />
<glyph unicode="p" horiz-adv-x="1247" d="M141 -397v1401h230v-91q106 115 284 115q215 0 352.5 -149.5t137.5 -376.5t-137.5 -376t-352.5 -149q-162 0 -280 97v-471h-234zM371 500q0 -135 70 -226.5t198 -91.5q127 0 197.5 92t70.5 226t-70.5 225.5t-197.5 91.5q-129 0 -198.5 -91.5t-69.5 -225.5z" />
<glyph unicode="q" horiz-adv-x="1247" d="M102 502q0 227 137.5 376.5t352.5 149.5q179 0 285 -115v91h229v-1401h-234v471q-118 -97 -280 -97q-215 0 -352.5 149t-137.5 376zM340 500q0 -134 70.5 -226t197.5 -92q129 0 199 92t70 226t-70 225.5t-199 91.5q-127 0 -197.5 -91.5t-70.5 -225.5z" />
<glyph unicode="r" horiz-adv-x="778" d="M164 0v1004h229v-109q56 68 128.5 95.5t176.5 27.5q20 0 45 -2v-221q-16 2 -36 2q-172 0 -241 -97t-69 -307v-393h-233z" />
<glyph unicode="s" horiz-adv-x="968" d="M84 172l147 152q113 -146 287 -146q82 0 118 30t36 73q0 34 -26.5 56t-96.5 42l-133 33q-305 70 -305 317q0 137 102.5 218t263.5 81q218 0 379 -168l-149 -160q-94 127 -236 127q-62 0 -99.5 -27t-37.5 -67q0 -35 27 -59t71 -35l158 -37q143 -33 225 -110t82 -203 q0 -136 -104 -224t-293 -88q-261 0 -416 195z" />
<glyph unicode="t" horiz-adv-x="712" d="M23 795v209h147v280h231v-280h240v-209h-240v-406q0 -109 33 -145.5t131 -36.5l76 4v-209q-45 -4 -125 -4q-194 0 -270 81t-76 275v441h-147z" />
<glyph unicode="u" horiz-adv-x="1124" d="M117 420v584h233v-601q0 -100 49.5 -158.5t139.5 -58.5q99 0 154 69.5t55 182.5v566h233v-1004h-229v82q-94 -105 -260 -105q-171 0 -273 116.5t-102 326.5z" />
<glyph unicode="v" horiz-adv-x="966" d="M0 1004h252l231 -703l232 703h252l-357 -1004h-254z" />
<glyph unicode="w" horiz-adv-x="1601" d="M57 1004h254l170 -693l183 693h299l182 -693l170 693h252l-277 -1004h-282l-195 713l-197 -713h-282z" />
<glyph unicode="x" horiz-adv-x="1028" d="M47 0l348 516l-325 488h268l186 -299l189 299h268l-326 -488l349 -516h-269l-211 328l-209 -328h-268z" />
<glyph unicode="y" horiz-adv-x="1118" d="M35 1004h266l262 -725l266 725h254l-561 -1401h-246l156 385z" />
<glyph unicode="z" horiz-adv-x="1032" d="M129 0v199l485 596h-475v209h764v-199l-489 -594h514v-211h-799z" />
<glyph unicode="{" horiz-adv-x="854" d="M70 408v223h233v489q0 68 17 125t52 103.5t96.5 73t143.5 26.5h172v-217h-73q-91 0 -130.5 -43t-39.5 -144v-1048q0 -101 39.5 -143.5t130.5 -42.5h73v-218h-172q-82 0 -143.5 26.5t-96.5 72.5t-52 103t-17 124v490h-233z" />
<glyph unicode="|" horiz-adv-x="890" d="M328 -397v1833h237v-1833h-237z" />
<glyph unicode="}" horiz-adv-x="854" d="M70 -190h73q91 0 130.5 42.5t39.5 143.5v1048q0 101 -39.5 144t-130.5 43h-73v217h172q82 0 143.5 -26.5t96.5 -73t52 -103.5t17 -125v-489h233v-223h-233v-490q0 -67 -17 -124t-52 -103t-96.5 -72.5t-143.5 -26.5h-172v218z" />
<glyph unicode="~" horiz-adv-x="1013" d="M129 385q-9 146 46.5 224.5t154.5 78.5q64 0 110 -16l142 -43q53 -17 80 -17q61 0 61 76h176q9 -146 -47 -224.5t-154 -78.5q-45 0 -112 16l-140 45q-8 2 -21 6t-20.5 6t-18 3.5t-19.5 1.5q-31 0 -47.5 -21t-16.5 -57h-174z" />
<glyph unicode="&#xa1;" horiz-adv-x="667" d="M186 881q0 61 43 104t105 43t104.5 -43t42.5 -104q0 -62 -43 -105t-104 -43q-62 0 -105 43.5t-43 104.5zM213 -397v968h242v-968h-242z" />
<glyph unicode="&#xa2;" horiz-adv-x="1128" d="M129 502q0 189 109 330.5t278 181.5v223h199v-215q191 -25 325 -195l-161 -155q-82 106 -164 131v-606q56 13 97.5 48.5t86.5 98.5l160 -149q-129 -184 -344 -211v-217h-199v225q-169 39 -278 179.5t-109 330.5zM367 502q0 -95 40.5 -170.5t108.5 -112.5v565 q-70 -37 -109.5 -111.5t-39.5 -170.5z" />
<glyph unicode="&#xa3;" horiz-adv-x="1339" d="M129 0v233h274l-94 433h-180v229h137q-6 56 -6 109q0 95 29 173.5t76 129.5t107.5 86t121 50t119.5 15q85 0 157.5 -19.5t127 -55t93 -73.5t74.5 -87l-168 -170q-121 184 -270 184q-101 0 -162 -63t-61 -183q0 -49 6 -96h393v-229h-348l96 -433h312v252h215v-485h-1049z " />
<glyph unicode="&#xa5;" horiz-adv-x="1300" d="M57 1436h262l345 -598l321 598h256l-356 -654h266v-202h-367v-142h367v-202h-367v-236h-245v236h-367v202h367v142h-367v202h260z" />
<glyph unicode="&#xa6;" horiz-adv-x="890" d="M328 350h237v-747h-237v747zM328 688v748h237v-748h-237z" />
<glyph unicode="&#xa7;" horiz-adv-x="1284" d="M123 600q0 92 42 168t114 129q-78 94 -78 219q0 149 125 245.5t303 96.5q138 0 245 -64.5t173 -160.5l-160 -160q-57 84 -119.5 128t-149.5 44q-78 0 -129 -39t-51 -98q0 -117 168 -184l150 -58q98 -38 164.5 -75.5t118 -89.5t76 -120.5t24.5 -158.5q0 -156 -123 -270 q74 -88 74 -201q0 -157 -113.5 -264t-314.5 -107q-306 0 -482 285l160 153q119 -223 315 -223q86 0 141.5 36.5t55.5 105.5q0 23 -6 42.5t-13 33.5t-24.5 27.5t-29.5 21.5t-40 19.5t-43 17t-51 18.5l-168 57q-79 28 -139.5 63.5t-110.5 86t-77 120.5t-27 156zM362 606 q0 -75 46.5 -124.5t162.5 -94.5l277 -104q55 71 55 145q0 75 -46 122t-163 91l-270 109q-62 -59 -62 -144z" />
<glyph unicode="&#xa8;" d="M244 1319q0 53 37.5 91t89.5 38q53 0 91 -38t38 -91t-38 -91t-91 -38q-52 0 -89.5 38t-37.5 91zM635 1319q0 53 38.5 91t90.5 38t89.5 -38t37.5 -91t-37.5 -91t-89.5 -38t-90.5 38t-38.5 91z" />
<glyph unicode="&#xa9;" horiz-adv-x="1691" d="M117 719q0 150 56.5 286.5t153 236t232.5 158t287 58.5q201 0 369 -99.5t264 -269.5t96 -370q0 -122 -36 -235.5t-103 -205t-156 -159.5t-201 -105t-233 -37q-152 0 -287.5 58t-232 157t-153 236.5t-56.5 290.5zM272 719q0 -163 74.5 -298t206.5 -212.5t293 -77.5 q120 0 226.5 46t182.5 124t120 187t44 231q0 159 -74.5 293.5t-206.5 213.5t-292 79q-161 0 -293 -79t-206.5 -213.5t-74.5 -293.5zM457 717q0 173 117 290t292 117q187 0 299 -135l-127 -125q-40 44 -78.5 65t-93.5 21q-95 0 -154 -67t-59 -166q0 -101 58 -168.5t159 -67.5 q105 0 185 92l127 -116q-129 -150 -320 -150q-176 0 -290.5 117.5t-114.5 292.5z" />
<glyph unicode="&#xaa;" horiz-adv-x="851" d="M104 913q0 62 25 110t67 76.5t93 43t108 14.5q63 0 138 -20v37q0 54 -33.5 85t-93.5 31q-98 0 -152 -104l-125 121q41 76 118 113.5t169 37.5q142 0 223.5 -75t81.5 -214v-469h-186v39q-70 -55 -175 -55q-108 0 -183 61t-75 168zM295 918q0 -32 23 -51t71 -19 q86 0 146 57v64q-73 26 -136 26q-51 0 -77.5 -22.5t-26.5 -54.5z" />
<glyph unicode="&#xab;" horiz-adv-x="1296" d="M70 502l280 502h256l-284 -502l284 -502h-256zM618 502l281 502h256l-285 -502l285 -502h-256z" />
<glyph unicode="&#xac;" horiz-adv-x="1284" d="M139 430v215h981v-508h-221v293h-760z" />
<glyph unicode="&#xad;" horiz-adv-x="1073" d="M164 430v215h747v-215h-747z" />
<glyph unicode="&#xae;" horiz-adv-x="1349" d="M117 891q0 154 73.5 284.5t201 206.5t280.5 76q154 0 283 -76t203.5 -206.5t74.5 -284.5q0 -153 -74.5 -282.5t-203.5 -205t-283 -75.5q-153 0 -280.5 75.5t-201 205t-73.5 282.5zM268 891q0 -175 117 -294.5t287 -119.5q172 0 289.5 119.5t117.5 294.5t-118 297.5 t-289 122.5q-170 0 -287 -122.5t-117 -297.5zM465 647v514h231q93 0 156 -44.5t63 -137.5q0 -118 -106 -168l121 -164h-158l-98 141h-70v-141h-139zM604 913h68q54 0 78 15.5t24 50.5q0 61 -102 61h-68v-127z" />
<glyph unicode="&#xaf;" d="M346 1241v195h490v-195h-490z" />
<glyph unicode="&#xb0;" horiz-adv-x="911" d="M117 1120q0 142 98.5 240t239.5 98q143 0 241.5 -98t98.5 -240q0 -141 -99 -239.5t-241 -98.5q-141 0 -239.5 98.5t-98.5 239.5zM319 1120q0 -60 39.5 -99.5t96.5 -39.5q56 0 94.5 39.5t38.5 99.5t-38.5 101t-94.5 41q-57 0 -96.5 -41t-39.5 -101z" />
<glyph unicode="&#xb1;" horiz-adv-x="1331" d="M164 0v215h1003v-215h-1003zM164 776v215h391v391h215v-391h397v-215h-397v-397h-215v397h-391z" />
<glyph unicode="&#xb2;" horiz-adv-x="872" d="M147 631v24q0 71 18.5 130t57 108.5t84.5 89.5t115 86l22 14q61 42 85 68t24 59q0 40 -26.5 62t-77.5 22q-114 0 -177 -129l-122 123q101 170 303 170q125 0 208.5 -65t83.5 -179q0 -81 -44.5 -140t-139.5 -124l-65 -45q-52 -33 -74.5 -54t-32.5 -52h350v-168h-592z" />
<glyph unicode="&#xb3;" horiz-adv-x="823" d="M82 754l121 120q66 -102 174 -102q54 0 86.5 24.5t32.5 67.5q0 92 -142 92h-73v168h59q133 0 133 88q0 37 -28.5 59.5t-75.5 22.5q-43 0 -82.5 -23.5t-67.5 -66.5l-117 117q111 137 277 137q55 0 104.5 -14t90.5 -41.5t65.5 -73.5t24.5 -104q0 -54 -27.5 -101.5 t-71.5 -72.5q50 -24 84.5 -74t34.5 -115q0 -66 -27 -117t-72.5 -80.5t-99.5 -44t-114 -14.5q-175 0 -289 148z" />
<glyph unicode="&#xb4;" d="M401 1167l187 269h286l-243 -269h-230z" />
<glyph unicode="&#xb6;" horiz-adv-x="1554" d="M57 981q0 206 143 330.5t384 124.5h807v-1833h-238v1622h-223v-1622h-240v925h-106q-241 0 -384 123t-143 330z" />
<glyph unicode="&#xb7;" horiz-adv-x="761" d="M225 537q0 61 43 104t105 43q61 0 104 -43t43 -104q0 -60 -43 -103t-104 -43t-104.5 43t-43.5 103z" />
<glyph unicode="&#xb8;" horiz-adv-x="1103" d="M367 -281l139 269h213l-117 -269h-235z" />
<glyph unicode="&#xb9;" horiz-adv-x="847" d="M164 631v166h205v417q-70 -51 -205 -51v164q71 2 131 28t86 81h176v-639h197v-166h-590z" />
<glyph unicode="&#xba;" horiz-adv-x="1007" d="M104 1067q0 169 117 280t283 111q107 0 198 -49.5t146 -139.5t55 -202q0 -167 -117.5 -278t-281.5 -111q-108 0 -199.5 49.5t-146 139t-54.5 200.5zM307 1067q0 -88 54.5 -146.5t142.5 -58.5q87 0 141.5 58.5t54.5 146.5q0 89 -54.5 148t-141.5 59q-88 0 -142.5 -59 t-54.5 -148z" />
<glyph unicode="&#xbb;" horiz-adv-x="1296" d="M141 0l285 502l-285 502h256l281 -502l-281 -502h-256zM690 0l285 502l-285 502h256l281 -502l-281 -502h-256z" />
<glyph unicode="&#xbc;" horiz-adv-x="1978" d="M182 631v166h205v417q-70 -51 -205 -51v164q71 2 131 28t86 81h176v-639h197v-166h-590zM492 0l884 1436h240l-885 -1436h-239zM1190 162v153l371 467h178v-454h123v-166h-123v-162h-189v162h-360zM1378 328h172v217z" />
<glyph unicode="&#xbd;" horiz-adv-x="2045" d="M164 631v166h205v417q-70 -51 -205 -51v164q71 2 131 28t86 81h176v-639h197v-166h-590zM473 0l885 1436h239l-884 -1436h-240zM1319 2q0 94 35.5 170t91 129t147.5 115l23 14q61 42 84.5 68t23.5 59q0 40 -26.5 62t-77.5 22q-113 0 -176 -129l-123 123q101 170 303 170 q125 0 209 -65t84 -179q0 -81 -44.5 -140t-139.5 -124l-66 -45q-51 -33 -73.5 -54.5t-32.5 -52.5h350v-168h-592v25z" />
<glyph unicode="&#xbe;" horiz-adv-x="1828" d="M82 754l121 120q66 -102 174 -102q54 0 86.5 24.5t32.5 67.5q0 92 -142 92h-73v168h59q133 0 133 88q0 37 -28.5 59.5t-75.5 22.5q-43 0 -82.5 -23.5t-67.5 -66.5l-117 117q111 137 277 137q55 0 104.5 -14t90.5 -41.5t65.5 -73.5t24.5 -104q0 -54 -27.5 -101.5 t-71.5 -72.5q50 -24 84.5 -74t34.5 -115q0 -66 -27 -117t-72.5 -80.5t-99.5 -44t-114 -14.5q-175 0 -289 148zM342 0l885 1436h239l-884 -1436h-240zM1040 162v153l371 467h178v-454h123v-166h-123v-162h-188v162h-361zM1229 328h172v217z" />
<glyph unicode="&#xbf;" horiz-adv-x="1095" d="M57 -2q0 -188 134 -303t341 -115q148 0 269 69t200 185l-155 170q-114 -201 -316 -201q-97 0 -162 50t-65 141q0 56 25 96.5t69.5 63t97 33t115.5 10.5h68v374h-242v-176q-175 -36 -277 -138t-102 -259zM412 881q0 61 42.5 104t102.5 43q62 0 105 -43t43 -104 t-43.5 -104.5t-104.5 -43.5q-60 0 -102.5 43.5t-42.5 104.5z" />
<glyph unicode="&#xc0;" horiz-adv-x="1413" d="M23 0l561 1436h245l560 -1436h-256l-121 305h-613l-118 -305h-258zM377 1786h299l176 -211h-252zM487 530h437l-219 574z" />
<glyph unicode="&#xc1;" horiz-adv-x="1413" d="M23 0l561 1436h245l560 -1436h-256l-121 305h-613l-118 -305h-258zM487 530h437l-219 574zM535 1575l176 211h299l-224 -211h-251z" />
<glyph unicode="&#xc2;" horiz-adv-x="1413" d="M23 0l561 1436h245l560 -1436h-256l-121 305h-613l-118 -305h-258zM381 1575l186 211h279l186 -211h-231l-94 90l-95 -90h-231zM487 530h437l-219 574z" />
<glyph unicode="&#xc3;" horiz-adv-x="1413" d="M23 0l561 1436h245l560 -1436h-256l-121 305h-613l-118 -305h-258zM379 1565q0 100 51.5 166.5t128.5 66.5q44 0 86 -14l82 -31q53 -16 68 -16q46 0 49 49h164q0 -100 -52 -167t-129 -67q-41 0 -86 15l-82 30q-4 1 -19.5 6.5t-26.5 8t-21 2.5q-46 0 -49 -49h-164z M487 530h437l-219 574z" />
<glyph unicode="&#xc4;" horiz-adv-x="1413" d="M23 0l561 1436h245l560 -1436h-256l-121 305h-613l-118 -305h-258zM365 1681q0 53 37.5 91t89.5 38t90.5 -38t38.5 -91t-38.5 -91t-90.5 -38t-89.5 38t-37.5 91zM487 530h437l-219 574zM756 1681q0 53 38 91t91 38q52 0 89.5 -38t37.5 -91t-37.5 -91t-89.5 -38 q-53 0 -91 38t-38 91z" />
<glyph unicode="&#xc5;" horiz-adv-x="1413" d="M23 0l559 1430q-39 30 -62.5 74.5t-23.5 94.5q0 90 61 149.5t143 59.5q88 0 150.5 -59t62.5 -150q0 -101 -84 -165l560 -1434h-256l-121 305h-613l-118 -305h-258zM487 530h437l-219 574zM623 1599q0 -33 24.5 -56t57.5 -23t56 23t23 56t-23 56.5t-56 23.5t-57.5 -23.5 t-24.5 -56.5z" />
<glyph unicode="&#xc6;" horiz-adv-x="1886" d="M23 0l561 1436h1163v-222h-832l144 -370h653v-223h-565l156 -400h444v-221h-614l-121 305h-613l-118 -305h-258zM487 530h437l-219 574z" />
<glyph unicode="&#xc7;" horiz-adv-x="1433" d="M53 715q0 219 97.5 389t266 262t378.5 92q360 0 559 -270l-158 -164q-146 211 -397 211q-213 0 -354.5 -147.5t-141.5 -372.5q0 -222 143 -368t361 -146q253 0 414 215l153 -168q-195 -242 -491 -266l-113 -263h-235l139 269q-277 39 -449 237t-172 490z" />
<glyph unicode="&#xc8;" horiz-adv-x="1314" d="M164 0v1436h1010v-222h-766v-370h731v-223h-731v-400h766v-221h-1010zM377 1786h299l176 -211h-252z" />
<glyph unicode="&#xc9;" horiz-adv-x="1314" d="M164 0v1436h1010v-222h-766v-370h731v-223h-731v-400h766v-221h-1010zM502 1575l176 211h299l-223 -211h-252z" />
<glyph unicode="&#xca;" horiz-adv-x="1314" d="M164 0v1436h1010v-222h-766v-370h731v-223h-731v-400h766v-221h-1010zM352 1575l187 211h278l187 -211h-232l-94 90l-94 -90h-232z" />
<glyph unicode="&#xcb;" horiz-adv-x="1314" d="M164 0v1436h1010v-222h-766v-370h731v-223h-731v-400h766v-221h-1010zM354 1681q0 53 37.5 91t89.5 38q53 0 91 -38t38 -91t-38 -91t-91 -38q-52 0 -89.5 38t-37.5 91zM745 1681q0 53 38.5 91t90.5 38t89.5 -38t37.5 -91t-37.5 -91t-89.5 -38t-90.5 38t-38.5 91z" />
<glyph unicode="&#xcc;" horiz-adv-x="571" d="M-47 1786h299l176 -211h-252zM164 0v1436h244v-1436h-244z" />
<glyph unicode="&#xcd;" horiz-adv-x="571" d="M137 1575l176 211h299l-223 -211h-252zM164 0v1436h244v-1436h-244z" />
<glyph unicode="&#xce;" horiz-adv-x="571" d="M-37 1575l187 211h278l186 -211h-231l-94 90l-94 -90h-232zM164 0v1436h244v-1436h-244z" />
<glyph unicode="&#xcf;" horiz-adv-x="571" d="M-37 1681q0 53 37.5 91t89.5 38t90.5 -38t38.5 -91t-38.5 -91t-90.5 -38t-89.5 38t-37.5 91zM164 0v1436h244v-1436h-244zM354 1681q0 53 38 91t91 38q52 0 89.5 -38t37.5 -91t-37.5 -91t-89.5 -38q-53 0 -91 38t-38 91z" />
<glyph unicode="&#xd0;" horiz-adv-x="1552" d="M70 621v223h163v592h449q101 0 192.5 -15t180.5 -47.5t160.5 -88.5t127 -132.5t85.5 -185t30 -240.5q0 -158 -44 -284t-117.5 -207.5t-175 -136t-210 -77t-229.5 -22.5h-449v621h-163zM477 221h160q97 0 177 13.5t155 48t126.5 90.5t82 146t30.5 208q0 114 -30.5 200.5 t-82 140t-127 87t-155.5 46.5t-178 13h-158v-370h246v-223h-246v-400z" />
<glyph unicode="&#xd1;" horiz-adv-x="1529" d="M164 0v1436h244l712 -1016v1016h246v-1436h-246l-712 1012v-1012h-244zM451 1565q0 100 51.5 166.5t128.5 66.5q44 0 86 -14l82 -31q53 -16 67 -16q46 0 49 49h164q0 -100 -51.5 -167t-128.5 -67q-41 0 -86 15l-82 30q-4 1 -19.5 6.5t-26.5 8t-21 2.5q-47 0 -50 -49h-163 z" />
<glyph unicode="&#xd2;" horiz-adv-x="1644" d="M94 719q0 154 56 291t152 235.5t230.5 155.5t286.5 57t287.5 -57t233 -155t154 -235.5t56.5 -291.5q0 -156 -56.5 -293.5t-154 -236t-233 -155.5t-287.5 -57t-286.5 57t-231 155.5t-152 236t-55.5 293.5zM344 719q0 -223 136 -370.5t347 -147.5q206 0 342 148t136 370 q0 143 -61.5 260.5t-171 185.5t-245.5 68q-210 0 -346.5 -147.5t-136.5 -366.5zM477 1786h299l176 -211h-252z" />
<glyph unicode="&#xd3;" horiz-adv-x="1644" d="M94 719q0 154 56 291t152 235.5t230.5 155.5t286.5 57t287.5 -57t233 -155t154 -235.5t56.5 -291.5q0 -156 -56.5 -293.5t-154 -236t-233 -155.5t-287.5 -57t-286.5 57t-231 155.5t-152 236t-55.5 293.5zM344 719q0 -223 136 -370.5t347 -147.5q206 0 342 148t136 370 q0 143 -61.5 260.5t-171 185.5t-245.5 68q-210 0 -346.5 -147.5t-136.5 -366.5zM666 1575l176 211h299l-223 -211h-252z" />
<glyph unicode="&#xd4;" horiz-adv-x="1644" d="M94 719q0 154 56 291t152 235.5t230.5 155.5t286.5 57t287.5 -57t233 -155t154 -235.5t56.5 -291.5q0 -156 -56.5 -293.5t-154 -236t-233 -155.5t-287.5 -57t-286.5 57t-231 155.5t-152 236t-55.5 293.5zM344 719q0 -223 136 -370.5t347 -147.5q206 0 342 148t136 370 q0 143 -61.5 260.5t-171 185.5t-245.5 68q-210 0 -346.5 -147.5t-136.5 -366.5zM489 1575l187 211h278l187 -211h-232l-94 90l-94 -90h-232z" />
<glyph unicode="&#xd5;" horiz-adv-x="1644" d="M94 719q0 154 56 291t152 235.5t230.5 155.5t286.5 57t287.5 -57t233 -155t154 -235.5t56.5 -291.5q0 -156 -56.5 -293.5t-154 -236t-233 -155.5t-287.5 -57t-286.5 57t-231 155.5t-152 236t-55.5 293.5zM344 719q0 -223 136 -370.5t347 -147.5q206 0 342 148t136 370 q0 143 -61.5 260.5t-171 185.5t-245.5 68q-210 0 -346.5 -147.5t-136.5 -366.5zM496 1565q0 100 51.5 166.5t128.5 66.5q44 0 86 -14l82 -31q53 -16 67 -16q47 0 50 49h163q0 -100 -51.5 -167t-128.5 -67q-41 0 -86 15l-82 30q-4 1 -19.5 6.5t-26.5 8t-21 2.5q-47 0 -50 -49 h-163z" />
<glyph unicode="&#xd6;" horiz-adv-x="1644" d="M94 719q0 154 56 291t152 235.5t230.5 155.5t286.5 57t287.5 -57t233 -155t154 -235.5t56.5 -291.5q0 -156 -56.5 -293.5t-154 -236t-233 -155.5t-287.5 -57t-286.5 57t-231 155.5t-152 236t-55.5 293.5zM344 719q0 -223 136 -370.5t347 -147.5q206 0 342 148t136 370 q0 143 -61.5 260.5t-171 185.5t-245.5 68q-210 0 -346.5 -147.5t-136.5 -366.5zM500 1681q0 53 37.5 91t89.5 38q53 0 91 -38t38 -91t-38 -91t-91 -38q-52 0 -89.5 38t-37.5 91zM891 1681q0 53 38.5 91t90.5 38t89.5 -38t37.5 -91t-37.5 -91t-89.5 -38t-90.5 38t-38.5 91z " />
<glyph unicode="&#xd7;" horiz-adv-x="1239" d="M164 201l305 303l-301 301l151 151l302 -301l299 301l151 -151l-299 -301l305 -303l-153 -152l-303 303l-306 -303z" />
<glyph unicode="&#xd8;" horiz-adv-x="1644" d="M94 719q0 154 56 291t152 235.5t230.5 155.5t286.5 57q175 0 334 -78l84 121l162 -117l-82 -118q109 -102 171 -244t62 -303q0 -156 -56.5 -293.5t-154 -236t-233 -155.5t-287.5 -57q-184 0 -346 84l-86 -122l-160 116l86 123q-104 101 -161.5 240.5t-57.5 300.5z M344 719q0 -200 109 -340l567 813q-87 41 -193 41q-210 0 -346.5 -147.5t-136.5 -366.5zM606 252q102 -51 221 -51q206 0 342 148t136 370q0 208 -125 352z" />
<glyph unicode="&#xd9;" horiz-adv-x="1437" d="M139 637v799h246v-801q0 -436 334 -436t334 438v799h245v-799q0 -321 -156 -490.5t-423 -169.5t-423.5 169.5t-156.5 490.5zM393 1786h299l176 -211h-252z" />
<glyph unicode="&#xda;" horiz-adv-x="1437" d="M139 637v799h246v-801q0 -436 334 -436t334 438v799h245v-799q0 -321 -156 -490.5t-423 -169.5t-423.5 169.5t-156.5 490.5zM537 1575l176 211h299l-224 -211h-251z" />
<glyph unicode="&#xdb;" horiz-adv-x="1437" d="M139 637v799h246v-801q0 -436 334 -436t334 438v799h245v-799q0 -321 -156 -490.5t-423 -169.5t-423.5 169.5t-156.5 490.5zM389 1575l186 211h279l186 -211h-231l-94 90l-94 -90h-232z" />
<glyph unicode="&#xdc;" horiz-adv-x="1437" d="M139 637v799h246v-801q0 -436 334 -436t334 438v799h245v-799q0 -321 -156 -490.5t-423 -169.5t-423.5 169.5t-156.5 490.5zM397 1681q0 53 37.5 91t89.5 38t90.5 -38t38.5 -91t-38.5 -91t-90.5 -38t-89.5 38t-37.5 91zM788 1681q0 52 38.5 90.5t91.5 38.5q52 0 89 -38 t37 -91t-37 -91t-89 -38q-53 0 -91.5 38.5t-38.5 90.5z" />
<glyph unicode="&#xdd;" horiz-adv-x="1300" d="M47 1436h260l344 -668l340 668h262l-481 -934v-502h-244v502zM489 1575l177 211h299l-224 -211h-252z" />
<glyph unicode="&#xde;" horiz-adv-x="1316" d="M164 0v1434h244v-224h278q253 0 401 -124.5t148 -346.5t-148 -348.5t-401 -126.5h-278v-264h-244zM408 485h247q163 0 248.5 59.5t85.5 192.5q0 250 -334 250h-247v-502z" />
<glyph unicode="&#xdf;" horiz-adv-x="1306" d="M152 0v881q0 267 138 411t388 144q128 0 235.5 -51t172.5 -146t65 -215q0 -92 -38.5 -165.5t-104.5 -115.5q206 -117 206 -344q0 -172 -125 -285.5t-341 -113.5h-195v211h164q118 0 191 51t73 146q0 99 -77.5 152.5t-215.5 53.5h-135v209h121q111 0 176 56.5t65 148.5 q0 82 -63 139.5t-174 57.5q-145 0 -219 -83.5t-74 -260.5v-881h-233z" />
<glyph unicode="&#xe0;" horiz-adv-x="1052" d="M94 283q0 111 57 188t149.5 112t211.5 35q99 0 203 -34v67q0 75 -56.5 120.5t-140.5 45.5q-158 0 -237 -145l-158 147q58 101 166.5 155t230.5 54q195 0 311.5 -96.5t116.5 -282.5v-649h-229v78q-116 -101 -287 -101q-142 0 -240 83t-98 223zM260 1436h287l186 -269h-229 zM328 299q0 -50 39 -83.5t112 -33.5q66 0 131.5 24.5t104.5 61.5v115q-105 41 -209 41q-82 0 -130 -32.5t-48 -92.5z" />
<glyph unicode="&#xe1;" horiz-adv-x="1052" d="M94 283q0 111 57 188t149.5 112t211.5 35q99 0 203 -34v67q0 75 -56.5 120.5t-140.5 45.5q-158 0 -237 -145l-158 147q58 101 166.5 155t230.5 54q195 0 311.5 -96.5t116.5 -282.5v-649h-229v78q-116 -101 -287 -101q-142 0 -240 83t-98 223zM328 299q0 -50 39 -83.5 t112 -33.5q66 0 131.5 24.5t104.5 61.5v115q-105 41 -209 41q-82 0 -130 -32.5t-48 -92.5zM354 1167l187 269h286l-243 -269h-230z" />
<glyph unicode="&#xe2;" horiz-adv-x="1052" d="M94 283q0 111 57 188t149.5 112t211.5 35q99 0 203 -34v67q0 75 -56.5 120.5t-140.5 45.5q-158 0 -237 -145l-158 147q58 101 166.5 155t230.5 54q195 0 311.5 -96.5t116.5 -282.5v-649h-229v78q-116 -101 -287 -101q-142 0 -240 83t-98 223zM203 1167l198 269h265 l198 -269h-229l-103 123l-102 -123h-227zM328 299q0 -50 39 -83.5t112 -33.5q66 0 131.5 24.5t104.5 61.5v115q-105 41 -209 41q-82 0 -130 -32.5t-48 -92.5z" />
<glyph unicode="&#xe3;" horiz-adv-x="1052" d="M94 283q0 111 57 188t149.5 112t211.5 35q99 0 203 -34v67q0 75 -56.5 120.5t-140.5 45.5q-158 0 -237 -145l-158 147q58 101 166.5 155t230.5 54q195 0 311.5 -96.5t116.5 -282.5v-649h-229v78q-116 -101 -287 -101q-142 0 -240 83t-98 223zM215 1214q0 100 51.5 167 t128.5 67q44 0 86 -14l82 -31q57 -17 68 -17q46 0 49 50h164q0 -100 -51.5 -167t-128.5 -67q-41 0 -86 15l-82 30q-57 17 -68 17q-46 0 -49 -50h-164zM328 299q0 -50 39 -83.5t112 -33.5q66 0 131.5 24.5t104.5 61.5v115q-105 41 -209 41q-82 0 -130 -32.5t-48 -92.5z" />
<glyph unicode="&#xe4;" horiz-adv-x="1052" d="M94 283q0 111 57 188t149.5 112t211.5 35q99 0 203 -34v67q0 75 -56.5 120.5t-140.5 45.5q-158 0 -237 -145l-158 147q58 101 166.5 155t230.5 54q195 0 311.5 -96.5t116.5 -282.5v-649h-229v78q-116 -101 -287 -101q-142 0 -240 83t-98 223zM205 1319q0 53 37.5 91 t89.5 38t90.5 -38t38.5 -91t-38.5 -91t-90.5 -38t-89.5 38t-37.5 91zM328 299q0 -50 39 -83.5t112 -33.5q66 0 131.5 24.5t104.5 61.5v115q-105 41 -209 41q-82 0 -130 -32.5t-48 -92.5zM596 1319q0 53 38 91t91 38q52 0 89.5 -38t37.5 -91t-37.5 -91t-89.5 -38 q-53 0 -91 38t-38 91z" />
<glyph unicode="&#xe5;" horiz-adv-x="1052" d="M94 283q0 111 57 188t149.5 112t211.5 35q99 0 203 -34v67q0 75 -56.5 120.5t-140.5 45.5q-158 0 -237 -145l-158 147q58 101 166.5 155t230.5 54q195 0 311.5 -96.5t116.5 -282.5v-649h-229v78q-116 -101 -287 -101q-142 0 -240 83t-98 223zM328 299q0 -50 39 -83.5 t112 -33.5q66 0 131.5 24.5t104.5 61.5v115q-105 41 -209 41q-82 0 -130 -32.5t-48 -92.5zM365 1294q0 71 48 117.5t117 46.5t117.5 -46.5t48.5 -117.5q0 -67 -49 -114t-117 -47t-116.5 47t-48.5 114zM483 1294q0 -21 13 -34t34 -13t34.5 13t13.5 34q0 20 -13.5 32.5 t-34.5 12.5q-20 0 -33.5 -12.5t-13.5 -32.5z" />
<glyph unicode="&#xe6;" horiz-adv-x="1757" d="M117 283q0 111 57 188t149.5 112t211.5 35h202v33q0 75 -56 120.5t-140 45.5q-31 0 -61 -7t-62.5 -22.5t-62 -45t-52.5 -70.5l-156 147q58 102 166.5 155.5t231.5 53.5q117 0 197 -34t145 -107q128 141 317 141q95 0 173 -29t130.5 -78.5t88.5 -116t52.5 -139.5 t16.5 -151l-2 -84h-686q7 -113 78 -177.5t184 -64.5q160 0 260 142l156 -148q-159 -205 -416 -205q-217 0 -356 136q-160 -136 -404 -136q-159 0 -260.5 82t-101.5 224zM350 303q0 -51 41.5 -86t122.5 -35q66 0 136 29t120 76q-22 56 -25 143h-215q-83 0 -131.5 -33 t-48.5 -94zM987 618h430q-1 36 -12 68.5t-34.5 62.5t-66 48t-98.5 18q-90 0 -147 -58.5t-72 -138.5z" />
<glyph unicode="&#xe7;" horiz-adv-x="1103" d="M117 502q0 111 40 209t108 167.5t161 109.5t195 40q253 0 407 -201l-162 -155q-52 69 -108.5 106t-130.5 37q-119 0 -196 -88.5t-77 -224.5t78 -225t197 -89q87 0 144 38.5t114 117.5l160 -149q-117 -167 -316 -207l-117 -269h-235l139 269q-175 36 -288 177.5 t-113 336.5z" />
<glyph unicode="&#xe8;" d="M117 496q0 146 55.5 266.5t164 193t249.5 72.5q117 0 207.5 -44t143.5 -118.5t80 -163.5t27 -188l-2 -82h-686q9 -113 80.5 -178.5t184.5 -65.5q162 0 258 142l157 -148q-159 -205 -415 -205q-225 0 -364.5 144.5t-139.5 374.5zM293 1436h287l186 -269h-229zM369 618h428 q-1 36 -12 68.5t-34 62.5t-65 48t-98 18q-91 0 -147.5 -58t-71.5 -139z" />
<glyph unicode="&#xe9;" d="M117 496q0 -230 139.5 -374.5t364.5 -144.5q256 0 415 205l-157 148q-96 -142 -258 -142q-113 0 -184.5 65.5t-80.5 178.5h686q2 47 2 82q0 99 -27 188t-80 163.5t-143.5 118.5t-207.5 44q-141 0 -249.5 -72.5t-164 -193t-55.5 -266.5zM369 618q15 81 71.5 139t147.5 58 q56 0 98 -18t65 -48t34 -62.5t12 -68.5h-428zM416 1167l186 269h287l-244 -269h-229z" />
<glyph unicode="&#xea;" d="M117 496q0 -230 139.5 -374.5t364.5 -144.5q256 0 415 205l-157 148q-96 -142 -258 -142q-113 0 -184.5 65.5t-80.5 178.5h686q2 47 2 82q0 99 -27 188t-80 163.5t-143.5 118.5t-207.5 44q-141 0 -249.5 -72.5t-164 -193t-55.5 -266.5zM264 1167l199 269h264l199 -269 h-230l-102 123l-102 -123h-228zM369 618q15 81 71.5 139t147.5 58q56 0 98 -18t65 -48t34 -62.5t12 -68.5h-428z" />
<glyph unicode="&#xeb;" d="M117 496q0 -230 139.5 -374.5t364.5 -144.5q256 0 415 205l-157 148q-96 -142 -258 -142q-113 0 -184.5 65.5t-80.5 178.5h686q2 47 2 82q0 99 -27 188t-80 163.5t-143.5 118.5t-207.5 44q-141 0 -249.5 -72.5t-164 -193t-55.5 -266.5zM258 1319q0 53 37.5 91t89.5 38 q53 0 91 -38t38 -91t-38 -91t-91 -38q-52 0 -89.5 38t-37.5 91zM369 618q15 81 71.5 139t147.5 58q56 0 98 -18t65 -48t34 -62.5t12 -68.5h-428zM649 1319q0 53 38.5 91t90.5 38t89.5 -38t37.5 -91t-37.5 -91t-89.5 -38t-90.5 38t-38.5 91z" />
<glyph unicode="&#xec;" horiz-adv-x="587" d="M-33 1436h287l186 -269h-229zM180 0v1004h234v-1004h-234z" />
<glyph unicode="&#xed;" horiz-adv-x="583" d="M152 1167l186 269h287l-244 -269h-229zM176 0v1004h234v-1004h-234z" />
<glyph unicode="&#xee;" horiz-adv-x="587" d="M-33 1167l199 269h264l199 -269h-230l-102 123l-102 -123h-228zM180 0v1004h234v-1004h-234z" />
<glyph unicode="&#xef;" horiz-adv-x="587" d="M-27 1319q0 53 37.5 91t89.5 38t90.5 -38t38.5 -91t-38.5 -91t-90.5 -38t-89.5 38t-37.5 91zM180 0v1004h234v-1004h-234zM365 1319q0 53 38.5 91t90.5 38t89.5 -38t37.5 -91t-37.5 -91t-89.5 -38t-90.5 38t-38.5 91z" />
<glyph unicode="&#xf0;" horiz-adv-x="1214" d="M139 455q0 108 39 198.5t104.5 150.5t151 93t180.5 33q45 0 66 -8l-125 174l-209 -115v186l115 64l-144 205h281l66 -95l210 117v-186l-118 -66l207 -295q81 -117 126.5 -218.5t45.5 -213.5q0 -214 -140 -358t-358 -144q-100 0 -189.5 32.5t-158.5 91.5t-109.5 151 t-40.5 203zM385 453q0 -112 74 -183t178 -71t178 71t74 183t-74 183t-178 71t-178 -71t-74 -183z" />
<glyph unicode="&#xf1;" horiz-adv-x="1167" d="M164 0h233v555q0 121 57 191.5t164 70.5q95 0 147 -63.5t52 -169.5v-584h234v584q0 212 -106 328t-292 116q-83 0 -151 -30t-109 -76v82h-229v-1004zM291 1214q0 100 51.5 167t128.5 67q44 0 86 -14l82 -31q57 -17 68 -17q46 0 49 50h164q0 -100 -52 -167t-129 -67 q-41 0 -86 15l-82 30q-4 1 -19.5 6.5t-26.5 8t-21 2.5q-46 0 -49 -50h-164z" />
<glyph unicode="&#xf2;" horiz-adv-x="1222" d="M94 502q0 148 68.5 269t187 189t262.5 68q218 0 368 -151t150 -375t-150 -374.5t-368 -150.5q-144 0 -262.5 68t-187 188.5t-68.5 268.5zM295 1436h287l186 -269h-229zM332 502q0 -137 78.5 -225.5t201.5 -88.5q121 0 200 88.5t79 225.5q0 136 -78.5 224.5t-200.5 88.5 q-123 0 -201.5 -88t-78.5 -225z" />
<glyph unicode="&#xf3;" horiz-adv-x="1222" d="M94 502q0 148 68.5 269t187 189t262.5 68q218 0 368 -151t150 -375t-150 -374.5t-368 -150.5q-144 0 -262.5 68t-187 188.5t-68.5 268.5zM332 502q0 -137 78.5 -225.5t201.5 -88.5q121 0 200 88.5t79 225.5q0 136 -78.5 224.5t-200.5 88.5q-123 0 -201.5 -88t-78.5 -225z M424 1167l186 269h287l-244 -269h-229z" />
<glyph unicode="&#xf4;" horiz-adv-x="1222" d="M94 502q0 148 68.5 269t187 189t262.5 68q218 0 368 -151t150 -375t-150 -374.5t-368 -150.5q-144 0 -262.5 68t-187 188.5t-68.5 268.5zM283 1167l198 269h264l199 -269h-229l-103 123l-102 -123h-227zM332 502q0 -137 78.5 -225.5t201.5 -88.5q121 0 200 88.5t79 225.5 q0 136 -78.5 224.5t-200.5 88.5q-123 0 -201.5 -88t-78.5 -225z" />
<glyph unicode="&#xf5;" horiz-adv-x="1222" d="M94 502q0 148 68.5 269t187 189t262.5 68q218 0 368 -151t150 -375t-150 -374.5t-368 -150.5q-144 0 -262.5 68t-187 188.5t-68.5 268.5zM293 1214q0 100 51.5 167t128.5 67q44 0 86 -14l82 -31q57 -17 68 -17q46 0 49 50h164q0 -100 -52 -167t-129 -67q-41 0 -86 15 l-82 30q-4 1 -19.5 6.5t-26.5 8t-21 2.5q-46 0 -49 -50h-164zM332 502q0 -137 78.5 -225.5t201.5 -88.5q121 0 200 88.5t79 225.5q0 136 -78.5 224.5t-200.5 88.5q-123 0 -201.5 -88t-78.5 -225z" />
<glyph unicode="&#xf6;" horiz-adv-x="1222" d="M94 502q0 148 68.5 269t187 189t262.5 68q218 0 368 -151t150 -375t-150 -374.5t-368 -150.5q-144 0 -262.5 68t-187 188.5t-68.5 268.5zM289 1319q0 53 37.5 91t89.5 38t90.5 -38t38.5 -91t-38.5 -91t-90.5 -38t-89.5 38t-37.5 91zM332 502q0 -137 78.5 -225.5 t201.5 -88.5q121 0 200 88.5t79 225.5q0 136 -78.5 224.5t-200.5 88.5q-123 0 -201.5 -88t-78.5 -225zM680 1319q0 53 38 91t91 38q52 0 89.5 -38t37.5 -91t-37.5 -91t-89.5 -38q-53 0 -91 38t-38 91z" />
<glyph unicode="&#xf7;" horiz-adv-x="1331" d="M164 393v215h1003v-215h-1003zM518 123q0 61 43 104t105 43t104.5 -43t42.5 -104q0 -60 -43 -103t-104 -43t-104.5 43t-43.5 103zM518 879q0 61 43 104t105 43t104.5 -43t42.5 -104q0 -60 -43 -103t-104 -43t-104.5 43t-43.5 103z" />
<glyph unicode="&#xf8;" horiz-adv-x="1245" d="M117 502q0 148 68.5 269t187 189t262.5 68q113 0 211 -45l59 84l160 -115l-57 -82q145 -148 145 -368q0 -224 -150 -374.5t-368 -150.5q-108 0 -221 48l-62 -88l-157 114l61 86q-139 145 -139 365zM354 502q0 -95 39 -168l326 467q-47 14 -84 14q-123 0 -202 -88 t-79 -225zM541 205q49 -17 94 -17q121 0 199.5 88.5t78.5 225.5q0 101 -43 174z" />
<glyph unicode="&#xf9;" horiz-adv-x="1144" d="M139 420v584h234v-601q0 -100 49.5 -158.5t138.5 -58.5q99 0 154 69.5t55 182.5v566h234v-1004h-230v82q-94 -105 -260 -105q-171 0 -273 116.5t-102 326.5zM252 1436h287l186 -269h-229z" />
<glyph unicode="&#xfa;" horiz-adv-x="1144" d="M139 420v584h234v-601q0 -100 49.5 -158.5t138.5 -58.5q99 0 154 69.5t55 182.5v566h234v-1004h-230v82q-94 -105 -260 -105q-171 0 -273 116.5t-102 326.5zM418 1167l186 269h287l-244 -269h-229z" />
<glyph unicode="&#xfb;" horiz-adv-x="1144" d="M139 420v584h234v-601q0 -100 49.5 -158.5t138.5 -58.5q99 0 154 69.5t55 182.5v566h234v-1004h-230v82q-94 -105 -260 -105q-171 0 -273 116.5t-102 326.5zM248 1167l198 269h265l198 -269h-229l-102 123l-103 -123h-227z" />
<glyph unicode="&#xfc;" horiz-adv-x="1144" d="M139 420v584h234v-601q0 -100 49.5 -158.5t138.5 -58.5q99 0 154 69.5t55 182.5v566h234v-1004h-230v82q-94 -105 -260 -105q-171 0 -273 116.5t-102 326.5zM246 1319q0 53 37.5 91t89.5 38q53 0 91 -38t38 -91t-38 -91t-91 -38q-52 0 -89.5 38t-37.5 91zM637 1319 q0 53 38.5 91t90.5 38t89.5 -38t37.5 -91t-37.5 -91t-89.5 -38t-90.5 38t-38.5 91z" />
<glyph unicode="&#xfd;" horiz-adv-x="1140" d="M57 1004l398 -1016l-156 -385h246l561 1401h-254l-266 -725l-262 725h-267zM434 1167l187 269h286l-243 -269h-230z" />
<glyph unicode="&#xfe;" horiz-adv-x="1261" d="M164 -397v1833h229v-523q106 115 285 115q215 0 352 -149t137 -377q0 -227 -137 -376t-352 -149q-163 0 -281 97v-471h-233zM393 502q0 -135 71.5 -229.5t199.5 -94.5q86 0 148 47t90 118.5t28 158.5q0 134 -68.5 223.5t-197.5 89.5t-200 -90t-71 -223z" />
<glyph unicode="&#xff;" horiz-adv-x="1118" d="M35 1004l397 -1016l-156 -385h246l561 1401h-254l-266 -725l-262 725h-266zM238 1319q0 53 37.5 91t89.5 38q53 0 91 -38t38 -91t-38 -91t-91 -38q-52 0 -89.5 38t-37.5 91zM629 1319q0 53 38.5 91t90.5 38t89.5 -38t37.5 -91t-37.5 -91t-89.5 -38t-90.5 38t-38.5 91z " />
<glyph unicode="&#x152;" horiz-adv-x="1966" d="M104 719q0 206 92.5 370t255.5 255.5t367 91.5h1006v-222h-647v-370h612v-223h-612v-400h647v-221h-1006q-204 0 -367 91t-255.5 255.5t-92.5 372.5zM354 719q0 -222 130.5 -359t342.5 -137h105v987h-105q-211 0 -342 -136.5t-131 -354.5z" />
<glyph unicode="&#x153;" horiz-adv-x="1935" d="M117 502q0 148 68.5 269t186.5 189t261 68q117 0 218.5 -49t170.5 -139q63 89 155 138.5t205 49.5q117 0 207.5 -44t144 -118.5t80.5 -163.5t27 -188l-2 -82h-686q9 -114 80 -179t184 -65q160 0 260 142l156 -148q-159 -205 -416 -205q-254 0 -393 187 q-141 -187 -391 -187q-143 0 -261 68t-186.5 188.5t-68.5 268.5zM354 502q0 -136 79.5 -225t199.5 -89q118 0 199 87t81 221q0 142 -77.5 230.5t-202.5 88.5q-120 0 -199.5 -88.5t-79.5 -224.5zM1165 618h430q-4 79 -54.5 138t-156.5 59q-91 0 -147.5 -58t-71.5 -139z" />
<glyph unicode="&#x178;" horiz-adv-x="1300" d="M47 1436h260l344 -668l340 668h262l-481 -934v-502h-244v502zM340 1681q0 53 37.5 91t89.5 38q53 0 91 -38t38 -91t-38 -91t-91 -38q-52 0 -89.5 38t-37.5 91zM731 1681q0 53 38.5 91t90.5 38t89.5 -38t37.5 -91t-37.5 -91t-89.5 -38t-90.5 38t-38.5 91z" />
<glyph unicode="&#x2c6;" d="M252 1167l199 269h264l198 -269h-229l-102 123l-103 -123h-227z" />
<glyph unicode="&#x2dc;" horiz-adv-x="1179" d="M289 1214q0 100 51.5 167t128.5 67q44 0 86 -14l82 -31q57 -17 68 -17q46 0 49 50h164q0 -100 -52 -167t-129 -67q-41 0 -86 15l-82 30q-4 1 -19.5 6.5t-26.5 8t-21 2.5q-46 0 -49 -50h-164z" />
<glyph unicode="&#x2000;" horiz-adv-x="905" />
<glyph unicode="&#x2001;" horiz-adv-x="1810" />
<glyph unicode="&#x2002;" horiz-adv-x="905" />
<glyph unicode="&#x2003;" horiz-adv-x="1810" />
<glyph unicode="&#x2004;" horiz-adv-x="603" />
<glyph unicode="&#x2005;" horiz-adv-x="452" />
<glyph unicode="&#x2006;" horiz-adv-x="301" />
<glyph unicode="&#x2007;" horiz-adv-x="301" />
<glyph unicode="&#x2008;" horiz-adv-x="226" />
<glyph unicode="&#x2009;" horiz-adv-x="362" />
<glyph unicode="&#x200a;" horiz-adv-x="100" />
<glyph unicode="&#x2010;" horiz-adv-x="1073" d="M164 430v215h747v-215h-747z" />
<glyph unicode="&#x2011;" horiz-adv-x="1073" d="M164 430v215h747v-215h-747z" />
<glyph unicode="&#x2012;" horiz-adv-x="1073" d="M164 430v215h747v-215h-747z" />
<glyph unicode="&#x2013;" horiz-adv-x="1202" d="M164 430v215h887v-215h-887z" />
<glyph unicode="&#x2014;" horiz-adv-x="1798" d="M164 430v215h1483v-215h-1483z" />
<glyph unicode="&#x2018;" horiz-adv-x="577" d="M47 1436h246l190 -469h-215z" />
<glyph unicode="&#x2019;" horiz-adv-x="577" d="M47 967l191 469h245l-221 -469h-215z" />
<glyph unicode="&#x201a;" horiz-adv-x="530" d="M0 -236l190 469h246l-221 -469h-215z" />
<glyph unicode="&#x201c;" horiz-adv-x="937" d="M45 1436h246l192 -469h-215zM408 1436h245l191 -469h-215z" />
<glyph unicode="&#x201d;" horiz-adv-x="937" d="M47 967l191 469h245l-221 -469h-215zM408 967l192 469h246l-223 -469h-215z" />
<glyph unicode="&#x201e;" horiz-adv-x="888" d="M0 -236l190 469h246l-221 -469h-215zM360 -236l191 469h246l-222 -469h-215z" />
<glyph unicode="&#x2022;" horiz-adv-x="827" d="M139 537q0 114 80.5 194t194.5 80t193 -80t79 -194t-79 -193.5t-193 -79.5t-194.5 79.5t-80.5 193.5z" />
<glyph unicode="&#x2026;" horiz-adv-x="1574" d="M160 123q0 61 43 104t104 43q62 0 105 -43t43 -104q0 -60 -43.5 -103t-104.5 -43t-104 43t-43 103zM686 123q0 61 43 104t105 43t104.5 -43t42.5 -104q0 -60 -43 -103t-104 -43t-104.5 43t-43.5 103zM1210 123q0 61 43 104t105 43t104.5 -43t42.5 -104q0 -60 -43 -103 t-104 -43t-104.5 43t-43.5 103z" />
<glyph unicode="&#x202f;" horiz-adv-x="362" />
<glyph unicode="&#x2039;" horiz-adv-x="747" d="M70 502l280 502h256l-284 -502l284 -502h-256z" />
<glyph unicode="&#x203a;" horiz-adv-x="747" d="M141 0l285 502l-285 502h256l281 -502l-281 -502h-256z" />
<glyph unicode="&#x205f;" horiz-adv-x="452" />
<glyph unicode="&#x20ac;" horiz-adv-x="1466" d="M129 438v203h139q0 13 -1 37t-1 37q0 44 2 67h-139v203h170q60 219 213 346t373 127q276 0 444 -223l-155 -162q-53 75 -128.5 119.5t-164.5 44.5q-107 0 -194.5 -63.5t-133.5 -188.5h438v-203h-479q-2 -23 -2 -67q0 -51 2 -74h479v-203h-438q46 -120 132 -179.5 t198 -59.5q176 0 313 155l154 -170q-198 -207 -467 -207q-222 0 -373 123.5t-209 337.5h-172z" />
<glyph unicode="&#x2122;" horiz-adv-x="1781" d="M47 1274v162h617v-162h-224v-643h-176v643h-217zM791 631v805h186l227 -480l232 480h182v-805h-174v450l-148 -309h-180l-149 309v-450h-176z" />
</font>
</defs>
</svg>
