<?xml version="1.0" encoding="iso-8859-1"?>
<!-- Generator: Adobe Illustrator 16.0.0, SVG Export Plug-In . SVG Version: 6.00 Build 0)  -->
<!DOCTYPE svg PUBLIC "-//W3C//DTD SVG 1.1//EN" "http://www.w3.org/Graphics/SVG/1.1/DTD/svg11.dtd">
<svg version="1.1" id="Calque_1" xmlns="http://www.w3.org/2000/svg" xmlns:xlink="http://www.w3.org/1999/xlink" x="0px" y="0px"
	 width="51.091px" height="48px" viewBox="0 0 51.091 48" style="enable-background:new 0 0 51.091 48;" xml:space="preserve">
<path style="fill:#525967;" d="M28.816,0c-0.049,0.001-0.097,0.01-0.142,0.027l-3.38,1.255c-0.178,0.067-0.293,0.238-0.287,0.427
	l0.088,3.103l-4.389,2.286c-0.088,0.045-0.156,0.117-0.198,0.206L19.47,9.558h-4.351l-0.464-1.084
	c-0.05-0.117-0.148-0.207-0.271-0.246l-2.703-0.869c-0.233-0.075-0.482,0.053-0.557,0.285c-0.026,0.082-0.028,0.17-0.006,0.252
	l1.512,5.513l-3.575,0.59l-1.499-1.497c-0.109-0.11-0.268-0.154-0.418-0.117l-6.631,1.658c-0.237,0.06-0.381,0.3-0.321,0.537
	c0.017,0.066,0.048,0.127,0.092,0.178l1.1,1.29l-1.237,1.16c-0.179,0.167-0.188,0.446-0.021,0.625
	c0.06,0.062,0.136,0.107,0.219,0.127l3.915,0.955l5.414,2.569l0.086,2.148c0.005,0.116,0.055,0.225,0.14,0.304l4.266,3.982
	l1.123,3.102l-0.209-0.254c-0.154-0.188-0.434-0.215-0.622-0.059c-0.08,0.065-0.134,0.158-0.152,0.26l-2.222,11.972
	c-0.035,0.19,0.058,0.382,0.229,0.472l5.117,2.705c0.044,0.022,0.092,0.037,0.141,0.045l3.862,0.578
	c0.241,0.037,0.467-0.129,0.503-0.369c0.001-0.007,0.002-0.013,0.002-0.018l0.015-0.137l2.481,1.707
	c0.078,0.054,0.171,0.08,0.265,0.078l6.082-0.193c0.229-0.007,0.415-0.188,0.428-0.416l0.182-3.074l3.124-2.257l8.477,2.731
	c0.152,0.049,0.319,0.013,0.438-0.097l5.695-5.311c0.179-0.166,0.188-0.446,0.021-0.625c-0.042-0.046-0.093-0.081-0.15-0.105
	l-2.876-1.22l0.342-2.563c0.021-0.156-0.043-0.311-0.167-0.406l-1.104-0.859l1.659-0.598c0.229-0.083,0.348-0.338,0.265-0.566
	c-0.004-0.011-0.009-0.021-0.014-0.033l-1.342-2.953l0.335-0.469c0.072-0.103,0.099-0.23,0.07-0.354l-0.676-2.993
	c-0.054-0.238-0.29-0.388-0.529-0.333c-0.058,0.013-0.111,0.037-0.161,0.072l-1.655,1.197l-0.075,0.012l2.951-5.656l1.993-0.26
	c0.208-0.027,0.368-0.198,0.384-0.408l0.186-2.715l2.475-5.137c0.105-0.22,0.013-0.484-0.207-0.59
	c-0.035-0.016-0.072-0.028-0.111-0.036l-5.052-0.936l-1.056-1.319c-0.073-0.093-0.183-0.153-0.302-0.164l-3.747-0.375l-1.984-1.38
	l-0.35-1.57c-0.053-0.238-0.289-0.388-0.527-0.336c-0.015,0.004-0.029,0.008-0.043,0.012L35.77,6.352l-0.536-1.609
	c-0.05-0.148-0.174-0.259-0.327-0.292l-1.213-0.26L31.567,1.88c-0.162-0.177-0.437-0.192-0.617-0.033l-0.396,0.347l-1.361-2.001
	C29.108,0.069,28.967-0.004,28.816,0"/>
</svg>
